<svg width="128" height="128" viewBox="0 0 128 128" fill="none" xmlns="http://www.w3.org/2000/svg">
<path d="M24 4H104C115.046 4 124 12.9543 124 24V104C124 115.046 115.046 124 104 124H24C12.9543 124 4 115.046 4 104V24C4 12.9543 12.9543 4 24 4Z" fill="#8B4646" stroke="#532A2A" stroke-width="8"/>
<path d="M24 44H104C115.046 44 124 52.9543 124 64V104C124 115.046 115.046 124 104 124H24C12.9543 124 4 115.046 4 104V64C4 52.9543 12.9543 44 24 44Z" fill="#D06565" stroke="#8E4040" stroke-width="8"/>
<circle cx="63.5" cy="108.5" r="8.5" transform="rotate(-90 63.5 108.5)" fill="white"/>
<rect x="55" y="94" width="44" height="18" rx="9" transform="rotate(-90 55 94)" fill="white"/>
</svg>
