<svg width="128" height="128" viewBox="0 0 128 128" fill="none" xmlns="http://www.w3.org/2000/svg">
<path d="M24 4H104C115.046 4 124 12.9543 124 24V104C124 115.046 115.046 124 104 124H24C12.9543 124 4 115.046 4 104V24C4 12.9543 12.9543 4 24 4Z" fill="#686868" stroke="#4B4B4B" stroke-width="8"/>
<path d="M24 18H104C115.046 18 124 26.9543 124 38V104C124 115.046 115.046 124 104 124H24C12.9543 124 4 115.046 4 104V38C4 26.9543 12.9543 18 24 18Z" fill="#7A7A7A" stroke="#616161" stroke-width="8"/>
</svg>
