<svg width="128" height="128" viewBox="0 0 128 128" fill="none" xmlns="http://www.w3.org/2000/svg">
<path d="M24 4H104C115.046 4 124 12.9543 124 24V104C124 115.046 115.046 124 104 124H24C12.9543 124 4 115.046 4 104V24C4 12.9543 12.9543 4 24 4Z" fill="#41578E" stroke="#364260" stroke-width="8"/>
<path d="M24 44H104C115.046 44 124 52.9543 124 64V104C124 115.046 115.046 124 104 124H24C12.9543 124 4 115.046 4 104V64C4 52.9543 12.9543 44 24 44Z" fill="#4B77AA" stroke="#46557D" stroke-width="8"/>
</svg>
