<?xml version="1.0" encoding="UTF-8" standalone="no"?>
<svg
   width="128"
   height="128"
   viewBox="0 0 128 128"
   fill="none"
   version="1.1"
   id="svg87"
   xmlns="http://www.w3.org/2000/svg"
   xmlns:svg="http://www.w3.org/2000/svg">
  <mask
     id="path-2-outside-1_0_1"
     maskUnits="userSpaceOnUse"
     x="28"
     y="33"
     width="91"
     height="63"
     fill="#000000">
    <rect
       fill="#ffffff"
       x="28"
       y="33"
       width="91"
       height="63"
       id="rect2" />
    <path
       d="M 70.4251,63.2557 36.4705,79.7216 V 71.8977 L 61.5273,60.4943 61.2717,60.929 v -1.0995 l 0.2556,0.4603 -25.0568,-11.429 V 41.0625 L 70.4251,57.5284 Z M 110.605,81 v 6.4943 H 77.3413 V 81 Z"
       id="path2" />
  </mask>
  <mask
     id="path-5-outside-2_0_1"
     maskUnits="userSpaceOnUse"
     x="387"
     y="383"
     width="50"
     height="55"
     fill="#000000">
    <rect
       fill="#ffffff"
       x="387"
       y="383"
       width="50"
       height="55"
       id="rect5" />
    <path
       d="m 428.984,413.256 -33.955,16.466 v -7.824 l 25.057,-11.404 -0.256,0.435 v -1.099 l 0.256,0.46 -25.057,-11.429 v -7.799 l 33.955,16.466 z"
       id="path5" />
  </mask>
  <g
     id="g94"
     transform="translate(-861,-172)">
    <rect
       x="865"
       y="176"
       width="120"
       height="120"
       rx="20"
       fill="#c5d5e4"
       stroke="#7e95a8"
       stroke-width="8"
       id="rect31" />
    <path
       d="m 946.017,192.022 22,10.424 v 64.718 l -22,10.858 -1,-22.522 z"
       fill="#227cf1"
       id="path32" />
    <path
       d="m 878.276,251.321 62.005,-59.188 6.576,-0.022 -0.084,25.229 -58.887,44.149 z"
       fill="#0052b0"
       id="path33" />
    <path
       d="m 889.507,211.022 51.01,37.478 5.5,6.313 v 23.209 h -6.902 L 880.017,219.78 Z"
       fill="#0065d9"
       id="path34" />
    <path
       d="m 927.838,235.436 13.548,10.379 V 225.38 Z m 42.179,30.079 c 0,1.513 -0.854,2.897 -2.206,3.575 l -20.631,10.354 c -0.557,0.279 -1.171,0.425 -1.794,0.425 h -6.602 c -1.043,0 -2.045,-0.407 -2.791,-1.135 l -28.748,-28.011 -14.766,10.963 c -1.622,1.204 -3.887,1.01 -5.28,-0.452 l -9.078,-9.524 c -0.733,-0.77 -1.13,-1.8 -1.103,-2.863 0.027,-1.062 0.477,-2.072 1.249,-2.802 l 12.262,-11.611 -11.066,-10.781 c -0.789,-0.769 -1.226,-1.829 -1.208,-2.931 0.018,-1.101 0.49,-2.146 1.304,-2.888 l 9.077,-8.284 0.137,-0.119 c 1.429,-1.191 3.503,-1.242 4.992,-0.101 l 12.868,9.858 29.814,-28.224 0.141,-0.128 c 0.724,-0.623 1.65,-0.967 2.609,-0.967 h 6.189 l 0.225,0.006 c 0.523,0.029 1.038,0.162 1.511,0.39 l 20.631,9.94 c 1.384,0.667 2.264,2.067 2.264,3.603 z"
       stroke="#26324e"
       stroke-width="8"
       stroke-linejoin="round"
       id="path35" />
  </g>
  <mask
     id="mask0_0_1"
     maskUnits="userSpaceOnUse"
     x="520"
     y="1"
     width="126"
     height="126">
    <rect
       x="524"
       y="5"
       width="118"
       height="118"
       rx="24"
       fill="#bcbdbf"
       stroke="#ffffff"
       stroke-width="8"
       id="rect41" />
  </mask>
  <mask
     id="path-55-inside-3_0_1"
     fill="#ffffff">
    <path
       d="M 519,24 C 519,10.7452 529.745,0 543,0 h 80 c 13.255,0 24,10.7452 24,24 v 80 c 0,13.255 -10.745,24 -24,24 h -80 c -13.255,0 -24,-10.745 -24,-24 z"
       id="path45" />
  </mask>
  <mask
     id="mask1_0_1"
     maskUnits="userSpaceOnUse"
     x="520"
     y="173"
     width="126"
     height="126">
    <rect
       x="524"
       y="177"
       width="118"
       height="118"
       rx="24"
       fill="#bcbdbf"
       stroke="#ffffff"
       stroke-width="8"
       id="rect48" />
  </mask>
  <mask
     id="path-65-inside-4_0_1"
     fill="#ffffff">
    <path
       d="m 519,196 c 0,-13.255 10.745,-24 24,-24 h 80 c 13.255,0 24,10.745 24,24 v 80 c 0,13.255 -10.745,24 -24,24 h -80 c -13.255,0 -24,-10.745 -24,-24 z"
       id="path53" />
  </mask>
  <mask
     id="path-101-outside-5_0_1"
     maskUnits="userSpaceOnUse"
     x="1040"
     y="24"
     width="114"
     height="90"
     fill="#000000">
    <rect
       fill="#ffffff"
       x="1040"
       y="24"
       width="114"
       height="90"
       id="rect74" />
    <path
       d="m 1102.36,53.7227 v 0.2819 l -14.06,20.297 c -2.27,-0.1035 -4.56,0.2944 -6.73,1.1812 -0.94,0.3813 -1.84,0.8598 -2.69,1.4275 L 1048,64.2646 v 20.3928 l 24.09,8.9419 c 1.08,4.8677 4.46,9.1357 9.42,11.1877 3.9,1.611 8.29,1.617 12.19,0.018 3.91,-1.6 7.02,-4.675 8.65,-8.5506 0.86,-2.0641 1.28,-4.2873 1.22,-6.5236 l 20.11,-14.2837 0.49,0.0089 c 12.04,0 21.83,-9.7532 21.83,-21.7333 0,-11.9802 -9.77,-21.6977 -21.83,-21.7227 -12.04,0 -21.83,9.7425 -21.83,21.7227 z m -3.38,41.1292 c -2.61,6.2451 -9.81,9.1841 -16.08,6.5911 -2.78,-1.16 -5.03,-3.2952 -6.33,-5.9987 l 7.11,2.9263 c 1.1,0.4541 2.28,0.6887 3.47,0.6906 1.18,0.0019 2.36,-0.2291 3.46,-0.6796 1.1,-0.4506 2.1,-1.1119 2.94,-1.9463 0.84,-0.8343 1.51,-1.8253 1.97,-2.9163 0.92,-2.2045 0.93,-4.6832 0.01,-6.8917 -0.91,-2.2085 -2.67,-3.9661 -4.89,-4.8868 l -7.36,-3.0245 c 2.83,-1.0706 6.05,-1.1063 9.07,0.1374 3.05,1.2544 5.39,3.6169 6.64,6.6378 1.25,3.0209 1.24,6.3523 -0.02,9.3607 m 25.22,-26.6493 c -3.86,-0.0103 -7.56,-1.5397 -10.28,-4.2531 -2.73,-2.7134 -4.26,-6.3895 -4.26,-10.2233 0,-3.8331 1.53,-7.5083 4.26,-10.221 2.73,-2.7126 6.42,-4.2414 10.28,-4.2518 3.86,0.0094 7.56,1.5379 10.28,4.2506 2.73,2.7127 4.26,6.3885 4.27,10.2222 -0.01,3.8344 -1.54,7.5111 -4.27,10.2246 -2.72,2.7135 -6.42,4.2424 -10.28,4.2518 z m -10.9,-14.4996 c 0,-2.8804 1.15,-5.644 3.2,-7.6833 2.04,-2.0394 4.82,-3.1875 7.72,-3.1923 6.03,0 10.93,4.8713 10.93,10.8756 0,2.8811 -1.15,5.6449 -3.2,7.6836 -2.05,2.0388 -4.83,3.1856 -7.73,3.1885 -2.9,-0.0043 -5.68,-1.1518 -7.72,-3.1904 -2.05,-2.0386 -3.2,-4.8015 -3.2,-7.6817 z"
       id="path74" />
  </mask>
  <defs
     id="defs87" />
</svg>
