<?xml version="1.0" encoding="UTF-8" standalone="no"?>
<svg
   width="128"
   height="128"
   viewBox="0 0 128 128"
   fill="none"
   version="1.1"
   id="svg87"
   xmlns="http://www.w3.org/2000/svg"
   xmlns:svg="http://www.w3.org/2000/svg">
  <mask
     id="path-2-outside-1_0_1"
     maskUnits="userSpaceOnUse"
     x="28"
     y="33"
     width="91"
     height="63"
     fill="#000000">
    <rect
       fill="#ffffff"
       x="28"
       y="33"
       width="91"
       height="63"
       id="rect2" />
    <path
       d="M 70.4251,63.2557 36.4705,79.7216 V 71.8977 L 61.5273,60.4943 61.2717,60.929 v -1.0995 l 0.2556,0.4603 -25.0568,-11.429 V 41.0625 L 70.4251,57.5284 Z M 110.605,81 v 6.4943 H 77.3413 V 81 Z"
       id="path2" />
  </mask>
  <mask
     id="path-5-outside-2_0_1"
     maskUnits="userSpaceOnUse"
     x="387"
     y="383"
     width="50"
     height="55"
     fill="#000000">
    <rect
       fill="#ffffff"
       x="387"
       y="383"
       width="50"
       height="55"
       id="rect5" />
    <path
       d="m 428.984,413.256 -33.955,16.466 v -7.824 l 25.057,-11.404 -0.256,0.435 v -1.099 l 0.256,0.46 -25.057,-11.429 v -7.799 l 33.955,16.466 z"
       id="path5" />
  </mask>
  <g
     id="g95"
     transform="translate(-690.98297,-172)">
    <rect
       x="694.98297"
       y="176"
       width="120"
       height="120"
       rx="20"
       fill="#c5d5e4"
       stroke="#7e95a8"
       stroke-width="8"
       id="rect35" />
    <path
       d="m 755,204 c 15.524,0 28,12.371 28,27.5 0,15.129 -12.476,27.5 -28,27.5 -15.524,0 -28,-12.371 -28,-27.5 0,-15.129 12.476,-27.5 28,-27.5 z"
       fill="#458dd2"
       stroke="#273f6b"
       stroke-width="8"
       id="path36" />
    <path
       d="m 768.809,212.18 c 13.827,10.435 2.319,-22.626 9.73,-17.674 1.024,8.193 14.666,13.951 18.077,22.186 3.411,8.234 4.303,17.295 2.565,26.036 -1.739,8.741 -6.031,16.771 -12.333,23.073 -6.303,6.302 -14.332,10.594 -23.074,12.333 -8.741,1.739 -17.802,0.846 -26.036,-2.564 -8.234,-3.411 -15.272,-9.187 -20.224,-16.598 -4.951,-7.41 -7.594,-16.123 -7.594,-25.035 0,0 19.459,25.867 49.672,25.867 30.213,0 9.217,-47.624 9.217,-47.624 z"
       fill="url(#paint1_linear_0_1)"
       id="path37"
       style="fill:url(#paint1_linear_0_1)" />
    <path
       d="m 726.507,219.833 c 2.418,-4.044 7.967,-12.096 11.216,-10.22 -1.621,10.759 0.775,13.408 1.278,15.562 2.473,1.734 5.408,3.496 10.861,4.665 3.073,10.754 -19.275,16.387 -26.628,16.387 -7.353,0 -13.314,-5.961 -13.314,-13.315 0,-4.284 2.956,-11.052 6.031,-14.232 2.669,-4.233 7.543,-10.778 10.506,-9.067 -0.718,4.766 -0.645,7.94 -0.3,10.185 0.118,0.012 0.235,0.023 0.35,0.035 z"
       fill="#366da2"
       id="path38" />
    <path
       d="m 749.862,233.424 c 0,4.609 -11.835,10.754 -16.46,10.754 -4.626,0 -8.376,-2.98 -8.376,-6.657 0,-3.676 3.75,-6.657 8.376,-6.657 4.625,0 16.46,-1.116 16.46,2.56 z"
       fill="#448dd2"
       id="path39" />
    <path
       d="m 773.772,191.403 c 1.079,-1.049 2.517,-1.526 3.984,-1.381 1.096,0.109 2.022,0.545 2.72,0.975 l 0.285,0.184 0.177,0.125 c 0.866,0.649 1.434,1.624 1.57,2.704 0.126,1.011 0.678,2.217 1.915,3.742 1.241,1.531 2.916,3.079 4.904,4.83 1.898,1.673 4.124,3.564 6.038,5.533 1.921,1.977 3.812,4.308 4.946,7.046 3.714,8.965 4.685,18.83 2.792,28.348 -1.893,9.517 -6.565,18.259 -13.427,25.121 -6.861,6.862 -15.604,11.534 -25.122,13.428 -9.517,1.893 -19.381,0.921 -28.346,-2.792 -8.965,-3.714 -16.629,-10.003 -22.02,-18.072 -5.391,-8.068 -8.268,-17.554 -8.268,-27.257 0,-0.114 0.005,-0.227 0.014,-0.339 -0.009,-0.228 -0.014,-0.456 -0.014,-0.686 0,-2.903 0.956,-6.233 2.184,-9.103 1.176,-2.748 2.809,-5.555 4.675,-7.593 1.38,-2.16 3.351,-4.959 5.466,-7.106 1.092,-1.108 2.442,-2.273 3.966,-3.004 1.551,-0.744 3.917,-1.303 6.247,0.042 0.876,0.506 1.505,1.311 1.803,2.233 0.841,-0.776 1.77,-1.501 2.761,-2.042 1.558,-0.851 4.134,-1.673 6.701,-0.191 1.425,0.823 2.201,2.434 1.955,4.061 -0.76,5.045 -0.537,7.912 -0.192,9.621 0.172,0.855 0.393,1.507 0.62,2.112 0.062,0.165 0.154,0.402 0.259,0.679 1.93,1.252 4.3,2.443 8.335,3.308 1.445,0.309 2.603,1.391 3.009,2.812 0.627,2.196 0.553,4.245 0.006,6.098 -0.437,2.106 -1.767,3.818 -2.897,4.988 -0.035,0.036 -0.07,0.071 -0.105,0.107 -2.169,2.338 -5.11,4.146 -8.07,5.529 -1.12,0.548 -2.247,1.036 -3.336,1.436 -0.577,0.213 -1.177,0.411 -1.782,0.588 -1.344,0.449 -2.698,0.841 -4.024,1.181 7.227,4.037 16.049,7.136 26.09,7.136 3.256,0 5.522,-0.64 7.112,-1.534 1.562,-0.877 2.693,-2.123 3.513,-3.727 1.727,-3.382 2.05,-8.352 1.344,-14.061 -0.69,-5.582 -2.282,-11.252 -3.735,-15.589 -0.722,-2.154 -1.398,-3.948 -1.892,-5.196 -0.246,-0.623 -0.447,-1.109 -0.584,-1.434 -0.068,-0.163 -0.12,-0.285 -0.154,-0.365 -0.017,-0.039 -0.029,-0.068 -0.037,-0.086 -0.004,-0.008 -0.006,-0.014 -0.008,-0.017 l -0.002,-0.003 v -0.001 c -0.733,-1.666 -0.249,-3.617 1.178,-4.747 1.428,-1.131 3.439,-1.154 4.892,-0.057 0.302,0.228 0.57,0.411 0.802,0.564 0.003,-0.024 0.007,-0.048 0.009,-0.072 0.105,-1.073 0.107,-2.405 0.054,-3.94 -0.096,-2.743 -0.437,-6.672 -0.234,-9.212 0.056,-0.7 0.162,-1.489 0.384,-2.252 0.208,-0.714 0.622,-1.78 1.539,-2.672 z"
       stroke="#223b68"
       stroke-width="8"
       stroke-linejoin="round"
       id="path40" />
  </g>
  <mask
     id="mask0_0_1"
     maskUnits="userSpaceOnUse"
     x="520"
     y="1"
     width="126"
     height="126">
    <rect
       x="524"
       y="5"
       width="118"
       height="118"
       rx="24"
       fill="#bcbdbf"
       stroke="#ffffff"
       stroke-width="8"
       id="rect41" />
  </mask>
  <mask
     id="path-55-inside-3_0_1"
     fill="#ffffff">
    <path
       d="M 519,24 C 519,10.7452 529.745,0 543,0 h 80 c 13.255,0 24,10.7452 24,24 v 80 c 0,13.255 -10.745,24 -24,24 h -80 c -13.255,0 -24,-10.745 -24,-24 z"
       id="path45" />
  </mask>
  <mask
     id="mask1_0_1"
     maskUnits="userSpaceOnUse"
     x="520"
     y="173"
     width="126"
     height="126">
    <rect
       x="524"
       y="177"
       width="118"
       height="118"
       rx="24"
       fill="#bcbdbf"
       stroke="#ffffff"
       stroke-width="8"
       id="rect48" />
  </mask>
  <mask
     id="path-65-inside-4_0_1"
     fill="#ffffff">
    <path
       d="m 519,196 c 0,-13.255 10.745,-24 24,-24 h 80 c 13.255,0 24,10.745 24,24 v 80 c 0,13.255 -10.745,24 -24,24 h -80 c -13.255,0 -24,-10.745 -24,-24 z"
       id="path53" />
  </mask>
  <mask
     id="path-101-outside-5_0_1"
     maskUnits="userSpaceOnUse"
     x="1040"
     y="24"
     width="114"
     height="90"
     fill="#000000">
    <rect
       fill="#ffffff"
       x="1040"
       y="24"
       width="114"
       height="90"
       id="rect74" />
    <path
       d="m 1102.36,53.7227 v 0.2819 l -14.06,20.297 c -2.27,-0.1035 -4.56,0.2944 -6.73,1.1812 -0.94,0.3813 -1.84,0.8598 -2.69,1.4275 L 1048,64.2646 v 20.3928 l 24.09,8.9419 c 1.08,4.8677 4.46,9.1357 9.42,11.1877 3.9,1.611 8.29,1.617 12.19,0.018 3.91,-1.6 7.02,-4.675 8.65,-8.5506 0.86,-2.0641 1.28,-4.2873 1.22,-6.5236 l 20.11,-14.2837 0.49,0.0089 c 12.04,0 21.83,-9.7532 21.83,-21.7333 0,-11.9802 -9.77,-21.6977 -21.83,-21.7227 -12.04,0 -21.83,9.7425 -21.83,21.7227 z m -3.38,41.1292 c -2.61,6.2451 -9.81,9.1841 -16.08,6.5911 -2.78,-1.16 -5.03,-3.2952 -6.33,-5.9987 l 7.11,2.9263 c 1.1,0.4541 2.28,0.6887 3.47,0.6906 1.18,0.0019 2.36,-0.2291 3.46,-0.6796 1.1,-0.4506 2.1,-1.1119 2.94,-1.9463 0.84,-0.8343 1.51,-1.8253 1.97,-2.9163 0.92,-2.2045 0.93,-4.6832 0.01,-6.8917 -0.91,-2.2085 -2.67,-3.9661 -4.89,-4.8868 l -7.36,-3.0245 c 2.83,-1.0706 6.05,-1.1063 9.07,0.1374 3.05,1.2544 5.39,3.6169 6.64,6.6378 1.25,3.0209 1.24,6.3523 -0.02,9.3607 m 25.22,-26.6493 c -3.86,-0.0103 -7.56,-1.5397 -10.28,-4.2531 -2.73,-2.7134 -4.26,-6.3895 -4.26,-10.2233 0,-3.8331 1.53,-7.5083 4.26,-10.221 2.73,-2.7126 6.42,-4.2414 10.28,-4.2518 3.86,0.0094 7.56,1.5379 10.28,4.2506 2.73,2.7127 4.26,6.3885 4.27,10.2222 -0.01,3.8344 -1.54,7.5111 -4.27,10.2246 -2.72,2.7135 -6.42,4.2424 -10.28,4.2518 z m -10.9,-14.4996 c 0,-2.8804 1.15,-5.644 3.2,-7.6833 2.04,-2.0394 4.82,-3.1875 7.72,-3.1923 6.03,0 10.93,4.8713 10.93,10.8756 0,2.8811 -1.15,5.6449 -3.2,7.6836 -2.05,2.0388 -4.83,3.1856 -7.73,3.1885 -2.9,-0.0043 -5.68,-1.1518 -7.72,-3.1904 -2.05,-2.0386 -3.2,-4.8015 -3.2,-7.6817 z"
       id="path74" />
  </mask>
  <defs
     id="defs87">
    <linearGradient
       id="paint1_linear_0_1"
       x1="800.04602"
       y1="236.112"
       x2="733.47498"
       y2="236.112"
       gradientUnits="userSpaceOnUse">
      <stop
         stop-color="#86BEF4"
         id="stop83" />
      <stop
         offset="0.413362"
         stop-color="#86BEF4"
         id="stop84" />
      <stop
         offset="0.413462"
         stop-color="#448DD2"
         id="stop85" />
      <stop
         offset="0.9999"
         stop-color="#448DD2"
         id="stop86" />
      <stop
         offset="1"
         stop-color="#366DA2"
         id="stop87" />
    </linearGradient>
  </defs>
</svg>
