<svg width="128" height="128" viewBox="0 0 128 128" fill="none" xmlns="http://www.w3.org/2000/svg">
<g clip-path="url(#clip0_7_2)">
<path d="M104 4H24C12.9543 4 4 12.9543 4 24V104C4 115.046 12.9543 124 24 124H104C115.046 124 124 115.046 124 104V24C124 12.9543 115.046 4 104 4Z" fill="#515D69" stroke="#354048" stroke-width="8"/>
<path d="M111 44.3333C111 36.9695 103.986 31 95.3333 31L85 16L67 31H64.5L43.3333 16L32.6667 31C24.0142 31 17 36.9695 17 44.3333V97.6667C17 105.03 24.0142 111 32.6667 111H95.3333C103.986 111 111 105.03 111 97.6667V44.3333Z" fill="#A3B8CD" stroke="#6A88A6" stroke-width="8"/>
<path d="M61.236 63.2762L36.2365 75.3994V69.639L54.6849 61.2431L54.4967 61.5631V60.7536L54.6849 61.0925L36.2365 52.6777V46.9361L61.236 59.0594V63.2762ZM90.819 76.3407V81.1222H66.3281V76.3407H90.819Z" fill="#B8C9D9"/>
<mask id="mask0_7_2" style="mask-type:luminance" maskUnits="userSpaceOnUse" x="30" y="47" width="67" height="47">
<path d="M97 47H30V93.3846H97V47Z" fill="white"/>
<path d="M61.236 69.2762L36.2365 81.3994V75.639L54.6849 67.2431L54.4967 67.5631V66.7536L54.6849 67.0925L36.2365 58.6777V52.9361L61.236 65.0594V69.2762ZM90.819 82.3407V87.1222H66.3281V82.3407H90.819Z" fill="black"/>
</mask>
<g mask="url(#mask0_7_2)">
<path d="M61.2361 69.2762L63.8062 74.576C65.8367 73.5913 67.1262 71.5329 67.1262 69.2762H61.2361ZM36.2365 81.3994H30.3464C30.3464 83.4281 31.3905 85.314 33.1096 86.391C34.8289 87.4679 36.9813 87.5844 38.8066 86.6992L36.2365 81.3994ZM36.2365 75.639L33.7967 70.278C31.6953 71.2343 30.3464 73.3302 30.3464 75.639H36.2365ZM54.685 67.2431L59.7619 70.2295C61.0647 68.0148 60.7814 65.2111 59.062 63.3016C57.3426 61.3922 54.5839 60.8177 52.2452 61.882L54.685 67.2431ZM54.4968 67.5631H48.6067C48.6067 70.2201 50.3855 72.5482 52.9491 73.2463C55.5128 73.9444 58.2265 72.8397 59.5736 70.5495L54.4968 67.5631ZM54.4968 66.7536L59.6456 63.8931C58.3422 61.547 55.6174 60.3786 53.0192 61.0518C50.4211 61.7251 48.6067 64.0696 48.6067 66.7536H54.4968ZM54.685 67.0925L52.2406 72.4515C54.5549 73.5071 57.2854 72.9577 59.0115 71.0893C60.7376 69.2209 61.0692 66.4556 59.8339 64.232L54.685 67.0925ZM36.2365 58.6778H30.3464C30.3464 60.9848 31.6933 63.0794 33.7922 64.0367L36.2365 58.6778ZM36.2365 52.9361L38.8066 47.6363C36.9813 46.7512 34.8289 46.8676 33.1096 47.9446C31.3905 49.0216 30.3464 50.9074 30.3464 52.9361H36.2365ZM61.2361 65.0594H67.1262C67.1262 62.8027 65.8367 60.7443 63.8062 59.7596L61.2361 65.0594ZM61.2361 69.2762L58.666 63.9763L33.6665 76.0996L36.2365 81.3994L38.8066 86.6992L63.8062 74.576L61.2361 69.2762ZM36.2365 81.3994H42.1267V75.639H36.2365H30.3464V81.3994H36.2365ZM36.2365 75.639L38.6764 81L57.1248 72.6041L54.685 67.2431L52.2452 61.882L33.7967 70.278L36.2365 75.639ZM54.685 67.2431L49.6081 64.2567L49.4199 64.5767L54.4968 67.5631L59.5736 70.5495L59.7619 70.2295L54.685 67.2431ZM54.4968 67.5631H60.3869V66.7536H54.4968H48.6067V67.5631H54.4968ZM54.4968 66.7536L49.3479 69.6141L49.5361 69.953L54.685 67.0925L59.8339 64.232L59.6456 63.8931L54.4968 66.7536ZM54.685 67.0925L57.1294 61.7335L38.6809 53.3188L36.2365 58.6778L33.7922 64.0367L52.2406 72.4515L54.685 67.0925ZM36.2365 58.6778H42.1267V52.9361H36.2365H30.3464V58.6778H36.2365ZM36.2365 52.9361L33.6665 58.236L58.666 70.3592L61.2361 65.0594L63.8062 59.7596L38.8066 47.6363L36.2365 52.9361ZM61.2361 65.0594H55.346V69.2762H61.2361H67.1262V65.0594H61.2361ZM90.8191 82.3407H96.7092C96.7092 79.0876 94.0726 76.4506 90.8191 76.4506V82.3407ZM90.8191 87.1222V93.0123C94.0726 93.0123 96.7092 90.3752 96.7092 87.1222H90.8191ZM66.3282 87.1222H60.4381C60.4381 90.3752 63.0752 93.0123 66.3282 93.0123V87.1222ZM66.3282 82.3407V76.4506C63.0752 76.4506 60.4381 79.0876 60.4381 82.3407H66.3282ZM90.8191 82.3407H84.929V87.1222H90.8191H96.7092V82.3407H90.8191ZM90.8191 87.1222V81.2321H66.3282V87.1222V93.0123H90.8191V87.1222ZM66.3282 87.1222H72.2183V82.3407H66.3282H60.4381V87.1222H66.3282ZM66.3282 82.3407V88.2308H90.8191V82.3407V76.4506H66.3282V82.3407Z" fill="#36414C"/>
</g>
</g>
<defs>
<clipPath id="clip0_7_2">
<rect width="128" height="128" fill="white"/>
</clipPath>
</defs>
</svg>
