<?xml version="1.0" encoding="UTF-8" standalone="no"?>
<svg
   width="128"
   height="128"
   viewBox="0 0 128 128"
   fill="none"
   version="1.1"
   id="svg87"
   xmlns="http://www.w3.org/2000/svg"
   xmlns:svg="http://www.w3.org/2000/svg">
  <mask
     id="path-2-outside-1_0_1"
     maskUnits="userSpaceOnUse"
     x="28"
     y="33"
     width="91"
     height="63"
     fill="#000000">
    <rect
       fill="#ffffff"
       x="28"
       y="33"
       width="91"
       height="63"
       id="rect2" />
    <path
       d="M 70.4251,63.2557 36.4705,79.7216 V 71.8977 L 61.5273,60.4943 61.2717,60.929 v -1.0995 l 0.2556,0.4603 -25.0568,-11.429 V 41.0625 L 70.4251,57.5284 Z M 110.605,81 v 6.4943 H 77.3413 V 81 Z"
       id="path2" />
  </mask>
  <mask
     id="path-5-outside-2_0_1"
     maskUnits="userSpaceOnUse"
     x="387"
     y="383"
     width="50"
     height="55"
     fill="#000000">
    <rect
       fill="#ffffff"
       x="387"
       y="383"
       width="50"
       height="55"
       id="rect5" />
    <path
       d="m 428.984,413.256 -33.955,16.466 v -7.824 l 25.057,-11.404 -0.256,0.435 v -1.099 l 0.256,0.46 -25.057,-11.429 v -7.799 l 33.955,16.466 z"
       id="path5" />
  </mask>
  <mask
     id="mask0_0_1"
     maskUnits="userSpaceOnUse"
     x="520"
     y="1"
     width="126"
     height="126">
    <rect
       x="524"
       y="5"
       width="118"
       height="118"
       rx="24"
       fill="#bcbdbf"
       stroke="#ffffff"
       stroke-width="8"
       id="rect41" />
  </mask>
  <mask
     id="path-55-inside-3_0_1"
     fill="#ffffff">
    <path
       d="M 519,24 C 519,10.7452 529.745,0 543,0 h 80 c 13.255,0 24,10.7452 24,24 v 80 c 0,13.255 -10.745,24 -24,24 h -80 c -13.255,0 -24,-10.745 -24,-24 z"
       id="path45" />
  </mask>
  <mask
     id="mask1_0_1"
     maskUnits="userSpaceOnUse"
     x="520"
     y="173"
     width="126"
     height="126">
    <rect
       x="524"
       y="177"
       width="118"
       height="118"
       rx="24"
       fill="#bcbdbf"
       stroke="#ffffff"
       stroke-width="8"
       id="rect48" />
  </mask>
  <mask
     id="path-65-inside-4_0_1"
     fill="#ffffff">
    <path
       d="m 519,196 c 0,-13.255 10.745,-24 24,-24 h 80 c 13.255,0 24,10.745 24,24 v 80 c 0,13.255 -10.745,24 -24,24 h -80 c -13.255,0 -24,-10.745 -24,-24 z"
       id="path53" />
  </mask>
  <g
     id="g104"
     transform="translate(-690.98297,-347)">
    <rect
       x="694.98297"
       y="351"
       width="120"
       height="120"
       rx="20"
       fill="#c5d5e4"
       stroke="#7e95a8"
       stroke-width="8"
       id="rect68" />
    <circle
       cx="754.98297"
       cy="411"
       r="51"
       fill="#448dd2"
       stroke="#86bef4"
       stroke-width="8"
       id="circle68" />
    <path
       d="m 751.721,397.185 c 2.153,-7.573 7.626,-22.968 13.681,-21.345 2.037,18.065 7.048,21.305 8.793,24.563 4.741,1.729 10.238,3.304 19.545,2.831 9.608,16.027 -24.022,34.781 -35.888,37.961 -15.14,12.919 -22.107,-6.472 -40.527,-15.714 -1.853,-6.915 13.273,-19.131 16.861,-25.592 2.477,-7.987 7.513,-20.657 13.035,-19.177 0.902,8.002 2.392,13.094 3.92,16.567 0.195,-0.032 0.389,-0.065 0.58,-0.094 z"
       fill="#366da2"
       id="path69" />
    <path
       d="m 795.29,409.019 c 1.993,7.438 -14.45,22.473 -21.915,24.473 -7.465,2.001 -14.806,-1.188 -16.395,-7.121 -1.59,-5.934 3.172,-12.365 10.637,-14.366 7.465,-2 26.083,-8.919 27.673,-2.986 z"
       fill="#448dd2"
       id="path70" />
    <path
       d="m 758.252,374.531 c 1.847,-1.76 4.714,-3.485 8.185,-2.555 1.589,0.426 2.756,1.782 2.94,3.416 0.98,8.697 2.645,13.546 4.113,16.503 0.734,1.479 1.458,2.564 2.134,3.509 0.335,0.467 0.781,1.059 1.214,1.69 3.939,1.353 8.549,2.463 15.899,2.181 l 0.8,-0.035 0.276,-0.005 c 1.372,0.025 2.645,0.754 3.357,1.942 1.692,2.822 2.354,5.703 2.263,8.516 0.193,2.851 -0.919,5.672 -2.178,7.945 -0.033,0.059 -0.068,0.116 -0.101,0.175 -2.234,4.272 -5.881,8.195 -9.901,11.591 -1.556,1.367 -3.155,2.631 -4.718,3.734 -0.852,0.602 -1.725,1.177 -2.6,1.704 -7.272,4.8 -15.063,8.434 -20.177,9.967 -4.042,3.265 -8.057,4.873 -12.224,4.676 -4.264,-0.203 -7.918,-2.273 -11.094,-4.62 -3.082,-2.278 -6.496,-5.455 -9.71,-8.147 -3.381,-2.833 -6.997,-5.553 -11.199,-7.661 -1.021,-0.513 -1.774,-1.437 -2.07,-2.54 -0.878,-3.278 0.366,-6.519 1.703,-8.963 1.414,-2.585 3.458,-5.212 5.497,-7.622 2.011,-2.377 4.327,-4.894 6.107,-6.926 1.761,-2.011 3.031,-3.587 3.739,-4.752 1.271,-4.032 3.195,-9.281 5.576,-13.478 1.222,-2.152 2.716,-4.307 4.516,-5.851 1.822,-1.564 4.505,-2.922 7.657,-2.077 1.589,0.426 2.756,1.781 2.94,3.416 0.188,1.666 0.403,3.191 0.635,4.588 0.538,-1.245 1.113,-2.472 1.721,-3.637 1.273,-2.442 2.833,-4.903 4.7,-6.684 z"
       stroke="#223b68"
       stroke-width="8"
       stroke-linejoin="round"
       id="path71" />
  </g>
  <mask
     id="path-101-outside-5_0_1"
     maskUnits="userSpaceOnUse"
     x="1040"
     y="24"
     width="114"
     height="90"
     fill="#000000">
    <rect
       fill="#ffffff"
       x="1040"
       y="24"
       width="114"
       height="90"
       id="rect74" />
    <path
       d="m 1102.36,53.7227 v 0.2819 l -14.06,20.297 c -2.27,-0.1035 -4.56,0.2944 -6.73,1.1812 -0.94,0.3813 -1.84,0.8598 -2.69,1.4275 L 1048,64.2646 v 20.3928 l 24.09,8.9419 c 1.08,4.8677 4.46,9.1357 9.42,11.1877 3.9,1.611 8.29,1.617 12.19,0.018 3.91,-1.6 7.02,-4.675 8.65,-8.5506 0.86,-2.0641 1.28,-4.2873 1.22,-6.5236 l 20.11,-14.2837 0.49,0.0089 c 12.04,0 21.83,-9.7532 21.83,-21.7333 0,-11.9802 -9.77,-21.6977 -21.83,-21.7227 -12.04,0 -21.83,9.7425 -21.83,21.7227 z m -3.38,41.1292 c -2.61,6.2451 -9.81,9.1841 -16.08,6.5911 -2.78,-1.16 -5.03,-3.2952 -6.33,-5.9987 l 7.11,2.9263 c 1.1,0.4541 2.28,0.6887 3.47,0.6906 1.18,0.0019 2.36,-0.2291 3.46,-0.6796 1.1,-0.4506 2.1,-1.1119 2.94,-1.9463 0.84,-0.8343 1.51,-1.8253 1.97,-2.9163 0.92,-2.2045 0.93,-4.6832 0.01,-6.8917 -0.91,-2.2085 -2.67,-3.9661 -4.89,-4.8868 l -7.36,-3.0245 c 2.83,-1.0706 6.05,-1.1063 9.07,0.1374 3.05,1.2544 5.39,3.6169 6.64,6.6378 1.25,3.0209 1.24,6.3523 -0.02,9.3607 m 25.22,-26.6493 c -3.86,-0.0103 -7.56,-1.5397 -10.28,-4.2531 -2.73,-2.7134 -4.26,-6.3895 -4.26,-10.2233 0,-3.8331 1.53,-7.5083 4.26,-10.221 2.73,-2.7126 6.42,-4.2414 10.28,-4.2518 3.86,0.0094 7.56,1.5379 10.28,4.2506 2.73,2.7127 4.26,6.3885 4.27,10.2222 -0.01,3.8344 -1.54,7.5111 -4.27,10.2246 -2.72,2.7135 -6.42,4.2424 -10.28,4.2518 z m -10.9,-14.4996 c 0,-2.8804 1.15,-5.644 3.2,-7.6833 2.04,-2.0394 4.82,-3.1875 7.72,-3.1923 6.03,0 10.93,4.8713 10.93,10.8756 0,2.8811 -1.15,5.6449 -3.2,7.6836 -2.05,2.0388 -4.83,3.1856 -7.73,3.1885 -2.9,-0.0043 -5.68,-1.1518 -7.72,-3.1904 -2.05,-2.0386 -3.2,-4.8015 -3.2,-7.6817 z"
       id="path74" />
  </mask>
  <defs
     id="defs87" />
</svg>
