<?xml version="1.0" encoding="UTF-8" standalone="no"?>
<svg
   width="128"
   height="128"
   viewBox="0 0 128 128"
   fill="none"
   version="1.1"
   id="svg87"
   xmlns="http://www.w3.org/2000/svg"
   xmlns:svg="http://www.w3.org/2000/svg">
  <mask
     id="path-2-outside-1_0_1"
     maskUnits="userSpaceOnUse"
     x="28"
     y="33"
     width="91"
     height="63"
     fill="#000000">
    <rect
       fill="#ffffff"
       x="28"
       y="33"
       width="91"
       height="63"
       id="rect2" />
    <path
       d="M 70.4251,63.2557 36.4705,79.7216 V 71.8977 L 61.5273,60.4943 61.2717,60.929 v -1.0995 l 0.2556,0.4603 -25.0568,-11.429 V 41.0625 L 70.4251,57.5284 Z M 110.605,81 v 6.4943 H 77.3413 V 81 Z"
       id="path2" />
  </mask>
  <mask
     id="path-5-outside-2_0_1"
     maskUnits="userSpaceOnUse"
     x="387"
     y="383"
     width="50"
     height="55"
     fill="#000000">
    <rect
       fill="#ffffff"
       x="387"
       y="383"
       width="50"
       height="55"
       id="rect5" />
    <path
       d="m 428.984,413.256 -33.955,16.466 v -7.824 l 25.057,-11.404 -0.256,0.435 v -1.099 l 0.256,0.46 -25.057,-11.429 v -7.799 l 33.955,16.466 z"
       id="path5" />
  </mask>
  <mask
     id="mask0_0_1"
     maskUnits="userSpaceOnUse"
     x="520"
     y="1"
     width="126"
     height="126">
    <rect
       x="524"
       y="5"
       width="118"
       height="118"
       rx="24"
       fill="#bcbdbf"
       stroke="#ffffff"
       stroke-width="8"
       id="rect41" />
  </mask>
  <mask
     id="path-55-inside-3_0_1"
     fill="#ffffff">
    <path
       d="M 519,24 C 519,10.7452 529.745,0 543,0 h 80 c 13.255,0 24,10.7452 24,24 v 80 c 0,13.255 -10.745,24 -24,24 h -80 c -13.255,0 -24,-10.745 -24,-24 z"
       id="path45" />
  </mask>
  <mask
     id="mask1_0_1"
     maskUnits="userSpaceOnUse"
     x="520"
     y="173"
     width="126"
     height="126">
    <rect
       x="524"
       y="177"
       width="118"
       height="118"
       rx="24"
       fill="#bcbdbf"
       stroke="#ffffff"
       stroke-width="8"
       id="rect48" />
  </mask>
  <mask
     id="path-65-inside-4_0_1"
     fill="#ffffff">
    <path
       d="m 519,196 c 0,-13.255 10.745,-24 24,-24 h 80 c 13.255,0 24,10.745 24,24 v 80 c 0,13.255 -10.745,24 -24,24 h -80 c -13.255,0 -24,-10.745 -24,-24 z"
       id="path53" />
  </mask>
  <mask
     id="path-101-outside-5_0_1"
     maskUnits="userSpaceOnUse"
     x="1040"
     y="24"
     width="114"
     height="90"
     fill="#000000">
    <rect
       fill="#ffffff"
       x="1040"
       y="24"
       width="114"
       height="90"
       id="rect74" />
    <path
       d="m 1102.36,53.7227 v 0.2819 l -14.06,20.297 c -2.27,-0.1035 -4.56,0.2944 -6.73,1.1812 -0.94,0.3813 -1.84,0.8598 -2.69,1.4275 L 1048,64.2646 v 20.3928 l 24.09,8.9419 c 1.08,4.8677 4.46,9.1357 9.42,11.1877 3.9,1.611 8.29,1.617 12.19,0.018 3.91,-1.6 7.02,-4.675 8.65,-8.5506 0.86,-2.0641 1.28,-4.2873 1.22,-6.5236 l 20.11,-14.2837 0.49,0.0089 c 12.04,0 21.83,-9.7532 21.83,-21.7333 0,-11.9802 -9.77,-21.6977 -21.83,-21.7227 -12.04,0 -21.83,9.7425 -21.83,21.7227 z m -3.38,41.1292 c -2.61,6.2451 -9.81,9.1841 -16.08,6.5911 -2.78,-1.16 -5.03,-3.2952 -6.33,-5.9987 l 7.11,2.9263 c 1.1,0.4541 2.28,0.6887 3.47,0.6906 1.18,0.0019 2.36,-0.2291 3.46,-0.6796 1.1,-0.4506 2.1,-1.1119 2.94,-1.9463 0.84,-0.8343 1.51,-1.8253 1.97,-2.9163 0.92,-2.2045 0.93,-4.6832 0.01,-6.8917 -0.91,-2.2085 -2.67,-3.9661 -4.89,-4.8868 l -7.36,-3.0245 c 2.83,-1.0706 6.05,-1.1063 9.07,0.1374 3.05,1.2544 5.39,3.6169 6.64,6.6378 1.25,3.0209 1.24,6.3523 -0.02,9.3607 m 25.22,-26.6493 c -3.86,-0.0103 -7.56,-1.5397 -10.28,-4.2531 -2.73,-2.7134 -4.26,-6.3895 -4.26,-10.2233 0,-3.8331 1.53,-7.5083 4.26,-10.221 2.73,-2.7126 6.42,-4.2414 10.28,-4.2518 3.86,0.0094 7.56,1.5379 10.28,4.2506 2.73,2.7127 4.26,6.3885 4.27,10.2222 -0.01,3.8344 -1.54,7.5111 -4.27,10.2246 -2.72,2.7135 -6.42,4.2424 -10.28,4.2518 z m -10.9,-14.4996 c 0,-2.8804 1.15,-5.644 3.2,-7.6833 2.04,-2.0394 4.82,-3.1875 7.72,-3.1923 6.03,0 10.93,4.8713 10.93,10.8756 0,2.8811 -1.15,5.6449 -3.2,7.6836 -2.05,2.0388 -4.83,3.1856 -7.73,3.1885 -2.9,-0.0043 -5.68,-1.1518 -7.72,-3.1904 -2.05,-2.0386 -3.2,-4.8015 -3.2,-7.6817 z"
       id="path74" />
  </mask>
  <g
     id="g93"
     transform="translate(-1033,-5)">
    <rect
       x="1037"
       y="9"
       width="120"
       height="120"
       rx="20"
       fill="#132e62"
       stroke="#13213b"
       stroke-width="8"
       id="rect73" />
    <path
       d="m 1102.36,53.7227 v 0.2819 l -14.06,20.297 c -2.27,-0.1035 -4.56,0.2944 -6.73,1.1812 -0.94,0.3813 -1.84,0.8598 -2.69,1.4275 L 1048,64.2646 v 20.3928 l 24.09,8.9419 c 1.08,4.8677 4.46,9.1357 9.42,11.1877 3.9,1.611 8.29,1.617 12.19,0.018 3.91,-1.6 7.02,-4.675 8.65,-8.5506 0.86,-2.0641 1.28,-4.2873 1.22,-6.5236 l 20.11,-14.2837 0.49,0.0089 c 12.04,0 21.83,-9.7532 21.83,-21.7333 0,-11.9802 -9.77,-21.6977 -21.83,-21.7227 -12.04,0 -21.83,9.7425 -21.83,21.7227 z m -3.38,41.1292 c -2.61,6.2451 -9.81,9.1841 -16.08,6.5911 -2.78,-1.16 -5.03,-3.2952 -6.33,-5.9987 l 7.11,2.9263 c 1.1,0.4541 2.28,0.6887 3.47,0.6906 1.18,0.0019 2.36,-0.2291 3.46,-0.6796 1.1,-0.4506 2.1,-1.1119 2.94,-1.9463 0.84,-0.8343 1.51,-1.8253 1.97,-2.9163 0.92,-2.2045 0.93,-4.6832 0.01,-6.8917 -0.91,-2.2085 -2.67,-3.9661 -4.89,-4.8868 l -7.36,-3.0245 c 2.83,-1.0706 6.05,-1.1063 9.07,0.1374 3.05,1.2544 5.39,3.6169 6.64,6.6378 1.25,3.0209 1.24,6.3523 -0.02,9.3607 m 25.22,-26.6493 c -3.86,-0.0103 -7.56,-1.5397 -10.28,-4.2531 -2.73,-2.7134 -4.26,-6.3895 -4.26,-10.2233 0,-3.8331 1.53,-7.5083 4.26,-10.221 2.73,-2.7126 6.42,-4.2414 10.28,-4.2518 3.86,0.0094 7.56,1.5379 10.28,4.2506 2.73,2.7127 4.26,6.3885 4.27,10.2222 -0.01,3.8344 -1.54,7.5111 -4.27,10.2246 -2.72,2.7135 -6.42,4.2424 -10.28,4.2518 z m -10.9,-14.4996 c 0,-2.8804 1.15,-5.644 3.2,-7.6833 2.04,-2.0394 4.82,-3.1875 7.72,-3.1923 6.03,0 10.93,4.8713 10.93,10.8756 0,2.8811 -1.15,5.6449 -3.2,7.6836 -2.05,2.0388 -4.83,3.1856 -7.73,3.1885 -2.9,-0.0043 -5.68,-1.1518 -7.72,-3.1904 -2.05,-2.0386 -3.2,-4.8015 -3.2,-7.6817 z"
       fill="#ffffff"
       id="path75" />
    <path
       d="m 1102.36,53.7227 8,-0.153 c -0.09,-4.3578 -3.64,-7.847 -8,-7.847 z m 0,0.2819 6.58,4.5559 c 0.96,-1.3812 1.46,-3.0288 1.42,-4.7088 z m -14.06,20.297 -0.36,7.9917 c 2.75,0.125 5.37,-1.1728 6.94,-3.4358 z m -6.73,1.1812 3,7.4181 c 0.01,-0.0043 0.02,-0.0086 0.03,-0.0129 z m -2.69,1.4275 -3.03,7.4033 c 2.47,1.0114 5.28,0.7245 7.5,-0.7648 z M 1048,64.2646 l 3.03,-7.4033 c -2.47,-1.0104 -5.27,-0.7252 -7.49,0.7605 -2.21,1.4857 -3.54,3.9766 -3.54,6.6428 z m 0,20.3928 h -8 c 0,3.3447 2.08,6.3364 5.22,7.5001 z m 24.09,8.9419 7.82,-1.7291 c -0.59,-2.6525 -2.49,-4.8258 -5.03,-5.7711 z m 9.42,11.1877 -3.06,7.393 0.01,0.002 z m 20.84,-8.5326 -7.38,-3.1006 v 0.0041 z m 1.22,-6.5236 -4.63,-6.5213 c -2.17,1.5431 -3.43,4.0659 -3.36,6.729 z m 20.11,-14.2837 0.14,-7.9987 c -1.71,-0.0309 -3.38,0.4869 -4.78,1.4774 z m 0.49,0.0089 -0.14,7.9987 c 0.04,9e-4 0.09,0.0013 0.14,0.0013 z m 0,-43.456 0.02,-8 c -0.01,0 -0.01,0 -0.02,0 z m -21.83,21.7227 h -8 c 0,4.4182 3.58,8 8,8 z m 4.02,44.2153 c 1.71,-4.0763 -0.21,-8.7625 -4.29,-10.4669 -4.08,-1.7044 -8.76,0.2184 -10.47,4.2947 l 7.38,3.0861 z m -23.46,3.505 -3.08,7.383 c 0.01,0.003 0.02,0.006 0.02,0.009 z m -6.33,-5.9987 3.05,-7.3974 c -3.06,-1.2613 -6.59,-0.5044 -8.86,1.9035 -2.28,2.4078 -2.83,5.9686 -1.4,8.955 z m 7.11,2.9263 3.06,-7.3927 -0.01,-0.0046 z m 9.87,-1.9353 5.63,5.6827 z m 1.97,-2.9163 -7.38,-3.0924 v 0.0056 z m -4.88,-11.7785 3.07,-7.3886 c -0.01,-0.0038 -0.02,-0.0077 -0.03,-0.0115 z m -7.36,-3.0245 -2.83,-7.4837 c -3.07,1.1612 -5.12,4.084 -5.17,7.3696 -0.05,3.2856 1.92,6.2657 4.96,7.5142 z m 9.07,0.1374 -3.05,7.395 0.01,0.0048 z m -0.76,12.9065 c -1.71,4.0749 0.21,8.7631 4.29,10.4701 4.07,1.708 8.76,-0.211 10.47,-4.2861 l -7.38,-3.092 z m 32.6,-23.5573 -0.02,8 c 0.01,10e-5 0.03,10e-5 0.04,0 z m -14.54,-14.4764 -8,-0.0089 c 0,0.0053 0,0.0106 0,0.0158 z m 14.54,-14.4728 0.02,-8 c -0.01,0 -0.03,0 -0.04,0 z m 14.55,14.4728 8,0.0069 c 0,-0.0052 0,-0.0105 0,-0.0158 z m -25.45,-0.0232 8,0.004 v -0.0106 z m 10.92,-10.8756 v -8 h -0.01 z m 10.93,10.8756 h -8 v 0.004 z m -10.93,10.8721 -0.01,8 c 0.01,0 0.01,0 0.02,0 z m -21.85,-10.8524 -8,0.1529 0.01,0.2819 7.99,-0.1529 8,-0.1529 v -0.282 z m 0,0.2819 -6.57,-4.556 -14.06,20.297 6.57,4.556 6.58,4.5559 14.06,-20.297 z m -14.06,20.297 0.37,-7.9918 c -3.46,-0.1572 -6.9,0.4505 -10.13,1.7678 l 3.03,7.4052 3.03,7.4052 c 1.11,-0.4564 2.24,-0.6445 3.34,-0.5947 z m -6.73,1.1812 -2.99,-7.4181 c -1.46,0.5892 -2.86,1.3288 -4.16,2.207 l 4.46,6.6386 4.47,6.6385 c 0.38,-0.2572 0.79,-0.4744 1.22,-0.6479 z m -2.69,1.4275 3.03,-7.4033 -30.88,-12.6457 -3.03,7.4033 -3.03,7.4033 30.88,12.6457 z M 1048,64.2646 h -8 v 20.3928 h 8 8 V 64.2646 Z m 0,20.3928 -2.78,7.5001 24.09,8.9415 2.78,-7.4997 2.79,-7.5002 -24.1,-8.9419 z m 24.09,8.9419 -7.81,1.7291 c 1.63,7.3366 6.72,13.7696 14.17,16.8516 l 3.06,-7.393 3.06,-7.3923 c -2.47,-1.0219 -4.13,-3.1259 -4.66,-5.5245 z m 9.42,11.1877 -3.05,7.395 c 5.85,2.415 12.42,2.424 18.28,0.026 l -3.04,-7.403 -3.03,-7.4038 c -1.95,0.8014 -4.15,0.7982 -6.11,-0.0087 z m 12.19,0.018 3.04,7.403 c 5.85,-2.399 10.53,-7.017 12.98,-12.8571 l -7.37,-3.0965 -7.38,-3.0965 c -0.8,1.9105 -2.34,3.4426 -4.3,4.2433 z m 8.65,-8.5506 7.37,3.1006 c 1.31,-3.1092 1.94,-6.46 1.85,-9.8319 l -8,0.2077 -7.99,0.2077 c 0.03,1.1007 -0.18,2.1962 -0.61,3.2153 z m 1.22,-6.5236 4.64,6.5213 20.1,-14.2837 -4.63,-6.5213 -4.64,-6.5213 -20.1,14.2837 z m 20.11,-14.2837 -0.15,7.9987 0.5,0.0089 0.14,-7.9987 0.15,-7.9987 -0.5,-0.0089 z m 0.49,0.0089 v 8 c 16.43,0 29.83,-13.3037 29.83,-29.7333 h -8 -8 c 0,7.5306 -6.17,13.7333 -13.83,13.7333 z M 1146,53.7227 h 8 C 1154,37.2772 1140.6,24.034 1124.19,24 l -0.02,8 -0.02,8 c 7.71,0.0159 13.85,6.2079 13.85,13.7227 z M 1124.17,32 v -8 c -16.42,0 -29.83,13.2867 -29.83,29.7227 h 8 8 C 1110.34,46.1984 1116.51,40 1124.17,40 Z m -21.83,21.7227 v 8 h 0.02 v -8 -8 h -0.02 z m -3.36,41.1292 -7.38,-3.0861 c -0.89,2.1426 -3.41,3.2078 -5.64,2.2859 l -3.06,7.3913 -3.06,7.392 c 10.3,4.263 22.2,-0.549 26.52,-10.897 z m -16.08,6.5911 3.09,-7.382 c -0.98,-0.4078 -1.76,-1.1522 -2.2,-2.0778 l -7.22,3.4611 -7.21,3.4611 c 2.15,4.4816 5.88,8.0076 10.46,9.9206 z m -6.33,-5.9987 -3.04,7.3977 7.11,2.926 3.04,-7.3974 3.05,-7.3973 -7.11,-2.9264 z m 7.11,2.9263 -3.06,7.3924 c 2.07,0.854 4.28,1.295 6.51,1.298 l 0.02,-7.9998 0.01,-8 c -0.15,-2e-4 -0.29,-0.029 -0.42,-0.0833 z m 3.47,0.6906 -0.02,7.9998 c 2.24,0.004 4.45,-0.43 6.52,-1.277 l -3.04,-7.4024 -3.03,-7.4024 c -0.13,0.0539 -0.28,0.0822 -0.42,0.082 z m 3.46,-0.6796 3.04,7.4024 c 2.06,-0.847 3.94,-2.092 5.53,-3.666 l -5.63,-5.6827 -5.63,-5.6823 c -0.09,0.0946 -0.21,0.1723 -0.34,0.2262 z m 2.94,-1.9463 5.63,5.6827 c 1.59,-1.574 2.86,-3.447 3.72,-5.5122 l -7.38,-3.0868 -7.38,-3.0868 c -0.05,0.1168 -0.12,0.2263 -0.22,0.3208 z m 1.97,-2.9163 7.38,3.0924 c 1.74,-4.1714 1.76,-8.8649 0.03,-13.0441 l -7.4,3.06 -7.39,3.0599 c 0.1,0.2378 0.1,0.5018 0,0.7394 z m 0.01,-6.8917 7.4,-3.06 c -1.73,-4.1774 -5.05,-7.4861 -9.22,-9.2154 l -3.07,7.3886 -3.06,7.3886 c 0.26,0.112 0.46,0.3186 0.56,0.5581 z m -4.89,-4.8868 3.04,-7.4001 -7.36,-3.0244 -3.04,7.4 -3.04,7.4001 7.36,3.0245 z m -7.36,-3.0245 2.83,7.4838 c 1,-0.3808 2.12,-0.3907 3.19,0.0486 l 3.05,-7.395 3.05,-7.395 c -4.96,-2.0481 -10.29,-1.9866 -14.95,-0.2261 z m 9.07,0.1374 -3.04,7.3998 c 1.05,0.4324 1.84,1.2147 2.28,2.2967 l 7.4,-3.0587 7.39,-3.0587 c -2.05,-4.9598 -5.94,-8.9025 -10.99,-10.9788 z m 6.64,6.6378 -7.4,3.0587 c 0.44,1.0537 0.44,2.171 0,3.21 l 7.38,3.092 7.38,3.092 c 2.08,-4.9778 2.09,-10.5233 0.03,-15.5114 z m 25.2,-17.2886 0.02,-7.9999 c -1.76,-0.0048 -3.43,-0.7022 -4.66,-1.9231 l -5.64,5.6699 -5.65,5.6699 c 4.23,4.2058 9.95,6.5672 15.91,6.5832 z m -10.28,-4.2531 5.64,-5.6699 c -1.22,-1.2192 -1.9,-2.86 -1.9,-4.5603 l -8,0.0069 -8,0.0069 c 0,5.9673 2.39,11.6788 6.61,15.8863 z m -4.26,-10.2233 8,0.0089 c 0,-1.7 0.68,-3.3404 1.9,-4.5593 l -5.64,-5.6706 -5.64,-5.6705 c -4.23,4.2063 -6.62,9.9164 -6.62,15.8826 z m 4.26,-10.221 5.64,5.6706 c 1.23,-1.2205 2.9,-1.9177 4.66,-1.9225 l -0.02,-7.9999 -0.02,-8 c -5.96,0.016 -11.68,2.3766 -15.9,6.5813 z m 10.28,-4.2518 -0.02,8 c 1.76,0.0043 3.43,0.7013 4.66,1.9219 l 5.64,-5.6713 5.65,-5.6713 c -4.23,-4.2048 -9.95,-6.5647 -15.91,-6.5793 z m 10.28,4.2506 -5.64,5.6713 c 1.23,1.2189 1.91,2.8596 1.91,4.5598 l 8,-0.0089 8,-0.0089 c -0.01,-5.9672 -2.4,-11.6781 -6.62,-15.8846 z m 4.27,10.2222 -8,-0.0069 c 0,1.7005 -0.68,3.3416 -1.91,4.5609 l 5.64,5.6706 5.65,5.6706 c 4.23,-4.2077 6.61,-9.92 6.62,-15.8883 z m -4.27,10.2246 -5.64,-5.6706 c -1.23,1.221 -2.9,1.9182 -4.66,1.9225 l 0.02,7.9999 0.02,8 c 5.96,-0.0146 11.68,-2.3752 15.91,-6.5812 z m -21.18,-10.2478 8,-0.0066 c 0,-0.7431 0.3,-1.4666 0.84,-2.0086 l -5.64,-5.6681 -5.65,-5.6682 c -3.55,3.5367 -5.55,8.3403 -5.55,13.3582 z m 3.2,-7.6833 5.64,5.6681 c 0.55,-0.5437 1.3,-0.8591 2.09,-0.8604 l -0.01,-8 -0.01,-8 c -5,0.0082 -9.81,1.9892 -13.36,5.5241 z m 7.72,-3.1923 v 8 c 1.65,0 2.93,1.328 2.93,2.8756 h 8 8 c 0,-10.461 -8.52,-18.8756 -18.93,-18.8756 z m 10.93,10.8756 -8,0.004 c 0,0.7433 -0.3,1.4668 -0.84,2.0087 l 5.64,5.6709 5.64,5.671 c 3.56,-3.5357 5.56,-8.3396 5.56,-13.3585 z m -3.2,7.6836 -5.64,-5.6709 c -0.55,0.5436 -1.3,0.8586 -2.1,0.8594 l 0.01,8 0.01,8 c 5,-0.0049 9.81,-1.9836 13.36,-5.5175 z m -7.73,3.1885 0.01,-8 c -0.79,-0.0012 -1.54,-0.3164 -2.09,-0.8599 l -5.64,5.6695 -5.65,5.6696 c 3.55,3.5336 8.36,5.5134 13.36,5.5208 z m -7.72,-3.1904 5.64,-5.6695 c -0.54,-0.5394 -0.84,-1.2617 -0.84,-2.0082 l -8,-0.004 -8,-0.0039 c 0,5.0139 2,9.8174 5.55,13.3552 z"
       fill="#516faa"
       mask="url(#path-101-outside-5_0_1)"
       id="path76" />
  </g>
  <defs
     id="defs87" />
</svg>
