<svg width="128" height="128" viewBox="0 0 128 128" fill="none" xmlns="http://www.w3.org/2000/svg">
<rect x="4" y="4" width="120" height="120" rx="20" fill="#C5D5E4" stroke="#7E95A8" stroke-width="8"/>
<path d="M36.0361 24.0619C39.0737 18.8012 45.8012 16.998 51.0625 20.0355L77.5791 35.3451C77.9324 35.5491 78.2692 35.7706 78.5898 36.0062C99.3045 36.3215 116 53.2099 116 73.9994L115.987 74.9808C115.467 95.5143 98.6588 111.999 78 111.999C59.1044 111.999 43.4323 98.208 40.4961 80.142L31.0625 85.5892C25.8012 88.6267 19.0737 86.8233 16.0361 81.5629V81.5619C12.9986 76.3005 14.8016 69.5729 20.0625 66.5355L33.1152 58.9994H22C15.9249 58.9994 11 54.0745 11 47.9994L11.0146 47.434C11.3093 41.622 16.1146 36.9994 22 36.9994H37.4541C34.2924 33.5541 33.5744 28.3272 36.0361 24.0629V24.0619Z" fill="#FFA44A" stroke="#A96B35" stroke-width="8"/>
<circle cx="78" cy="74" r="17" fill="#53A9DE" stroke="white" stroke-width="8"/>
<circle cx="78" cy="74" r="25" stroke="#989898" stroke-width="8"/>
</svg>
