<svg width="128" height="128" viewBox="0 0 128 128" fill="none" xmlns="http://www.w3.org/2000/svg">
<rect x="4" y="4" width="120" height="120" rx="20" fill="#CCD0DA" stroke="#7C7F93" stroke-width="8"/>
<circle cx="92" cy="82" r="22" fill="#BCC0CC" stroke="#5C5F77" stroke-width="8"/>
<rect x="58.4767" y="51.5118" width="16" height="61" transform="rotate(45 58.4767 51.5118)" fill="#5C5F77" stroke="#4C4F69" stroke-width="8" stroke-linejoin="round"/>
<path d="M80.4469 39.8307C80.8251 40.1091 81.152 40.4526 81.4116 40.8451L96.6144 63.8261L96.776 64.0926C97.1287 64.7284 97.3023 65.4509 97.2753 66.1815L96.5681 85.2734C96.5038 87.0073 95.3286 88.5018 93.6589 88.9739C91.9891 89.446 90.2056 88.7874 89.243 87.3436L67.0464 54.0488L31.9784 30.0914C30.4988 29.0806 29.8711 27.2091 30.4433 25.5111C31.0156 23.813 32.6485 22.7028 34.438 22.7938L55.2977 23.8545L55.5642 23.8766C56.1836 23.9499 56.7787 24.1672 57.3009 24.5126L80.2819 39.7154L80.4469 39.8307Z" fill="#CCD0DA" stroke="#6C6F85" stroke-width="8" stroke-linejoin="round"/>
</svg>
