<svg width="128" height="128" viewBox="0 0 128 128" fill="none" xmlns="http://www.w3.org/2000/svg">
<rect x="4" y="4" width="120" height="120" rx="20" fill="#CCD0DA" stroke="#7C7F93" stroke-width="8"/>
<path d="M85.017 20.0221L107.017 30.4464V95.1635L85.017 106.022L84.017 83.5L85.017 20.0221Z" fill="#04A5E5"/>
<path d="M17.2763 79.3213L79.2812 20.1334L85.8566 20.1113L85.7729 45.3401L26.8864 89.4886L17.2763 79.3213Z" fill="#1E66F5"/>
<path d="M28.5072 39.0221L79.517 76.5L85.017 82.813V106.022H78.115L19.017 47.7803L28.5072 39.0221Z" fill="#04A5E5"/>
<path d="M66.8383 63.4362L80.3861 73.8151V53.3795L66.8383 63.4362ZM109.017 93.5153C109.017 95.0282 108.163 96.4118 106.811 97.0904L86.1801 107.444C85.6233 107.723 85.009 107.869 84.3861 107.869H77.7836C76.7409 107.869 75.7394 107.462 74.9926 106.734L46.2455 78.7233L31.4789 89.6862C29.8572 90.8901 27.592 90.6961 26.1986 89.234L17.1215 79.7096C16.3881 78.9401 15.9908 77.9099 16.0179 76.8473C16.0453 75.7845 16.495 74.7755 17.267 74.0445L29.5287 62.4342L18.4633 51.6529C17.6742 50.8842 17.2372 49.8238 17.2552 48.7223C17.2733 47.6209 17.7453 46.5761 18.559 45.8336L27.6361 37.5504L27.7728 37.4313C29.2017 36.2403 31.2757 36.1888 32.765 37.3297L45.6332 47.1881L75.4467 18.9645L75.5883 18.8356C76.3123 18.2129 77.2376 17.8688 78.1967 17.8688H84.3861L84.6107 17.8746C85.1345 17.9041 85.6485 18.0369 86.1224 18.2653L106.753 28.2047C108.137 28.8715 109.017 30.272 109.017 31.8082V93.5153Z" stroke="#1F458D" stroke-width="8" stroke-linejoin="round"/>
</svg>
