<?xml version="1.0" encoding="UTF-8" standalone="no"?>
<svg
   width="128"
   height="128"
   viewBox="0 0 128 128"
   fill="none"
   version="1.1"
   id="svg87"
   xmlns="http://www.w3.org/2000/svg"
   xmlns:svg="http://www.w3.org/2000/svg">
  <mask
     id="path-2-outside-1_0_1"
     maskUnits="userSpaceOnUse"
     x="28"
     y="33"
     width="91"
     height="63"
     fill="#000000">
    <rect
       fill="#ffffff"
       x="28"
       y="33"
       width="91"
       height="63"
       id="rect2" />
    <path
       d="M 70.4251,63.2557 36.4705,79.7216 V 71.8977 L 61.5273,60.4943 61.2717,60.929 v -1.0995 l 0.2556,0.4603 -25.0568,-11.429 V 41.0625 L 70.4251,57.5284 Z M 110.605,81 v 6.4943 H 77.3413 V 81 Z"
       id="path2" />
  </mask>
  <mask
     id="path-5-outside-2_0_1"
     maskUnits="userSpaceOnUse"
     x="387"
     y="383"
     width="50"
     height="55"
     fill="#000000">
    <rect
       fill="#ffffff"
       x="387"
       y="383"
       width="50"
       height="55"
       id="rect5" />
    <path
       d="m 428.984,413.256 -33.955,16.466 v -7.824 l 25.057,-11.404 -0.256,0.435 v -1.099 l 0.256,0.46 -25.057,-11.429 v -7.799 l 33.955,16.466 z"
       id="path5" />
  </mask>
  <g
     id="g92"
     transform="translate(-861.98297,-5)">
    <rect
       x="865.98297"
       y="9"
       width="120"
       height="120"
       rx="20"
       fill="#c5d5e4"
       stroke="#7e95a8"
       stroke-width="8"
       id="rect27" />
    <path
       d="m 947,25.0221 22,10.4243 V 100.164 L 947,111.022 946,88.5 Z"
       fill="#22a5f1"
       id="path28" />
    <path
       d="m 879.259,84.3213 62.005,-59.1879 6.576,-0.0221 -0.084,25.2288 -58.887,44.1484 z"
       fill="#006db0"
       id="path29" />
    <path
       d="M 890.49,44.0221 941.5,81.5 947,87.813 v 23.209 h -6.902 L 881,52.7803 Z"
       fill="#0080cf"
       id="path30" />
    <path
       d="m 928.821,68.4361 13.548,10.379 V 58.3795 Z M 971,98.5152 c 0,1.5128 -0.854,2.8968 -2.206,3.5748 l -20.631,10.354 c -0.557,0.279 -1.171,0.425 -1.794,0.425 h -6.602 c -1.043,0 -2.045,-0.407 -2.791,-1.135 L 908.229,83.7233 893.462,94.6861 c -1.622,1.204 -3.887,1.01 -5.28,-0.4521 l -9.078,-9.5244 c -0.733,-0.7695 -1.13,-1.7997 -1.103,-2.8623 0.027,-1.0628 0.477,-2.0718 1.249,-2.8028 L 891.512,67.4342 880.446,56.6529 c -0.789,-0.7688 -1.226,-1.8291 -1.208,-2.9306 0.018,-1.1014 0.49,-2.1462 1.304,-2.8887 l 9.077,-8.2832 0.137,-0.1191 c 1.429,-1.191 3.503,-1.2425 4.992,-0.1016 l 12.868,9.8584 29.814,-28.2236 0.141,-0.1289 c 0.724,-0.6227 1.65,-0.9668 2.609,-0.9668 h 6.189 l 0.225,0.0058 c 0.524,0.0295 1.038,0.1623 1.511,0.3906 l 20.631,9.9395 C 970.12,33.8715 971,35.272 971,36.8082 Z"
       stroke="#263b4e"
       stroke-width="8"
       stroke-linejoin="round"
       id="path31" />
  </g>
  <mask
     id="mask0_0_1"
     maskUnits="userSpaceOnUse"
     x="520"
     y="1"
     width="126"
     height="126">
    <rect
       x="524"
       y="5"
       width="118"
       height="118"
       rx="24"
       fill="#bcbdbf"
       stroke="#ffffff"
       stroke-width="8"
       id="rect41" />
  </mask>
  <mask
     id="path-55-inside-3_0_1"
     fill="#ffffff">
    <path
       d="M 519,24 C 519,10.7452 529.745,0 543,0 h 80 c 13.255,0 24,10.7452 24,24 v 80 c 0,13.255 -10.745,24 -24,24 h -80 c -13.255,0 -24,-10.745 -24,-24 z"
       id="path45" />
  </mask>
  <mask
     id="mask1_0_1"
     maskUnits="userSpaceOnUse"
     x="520"
     y="173"
     width="126"
     height="126">
    <rect
       x="524"
       y="177"
       width="118"
       height="118"
       rx="24"
       fill="#bcbdbf"
       stroke="#ffffff"
       stroke-width="8"
       id="rect48" />
  </mask>
  <mask
     id="path-65-inside-4_0_1"
     fill="#ffffff">
    <path
       d="m 519,196 c 0,-13.255 10.745,-24 24,-24 h 80 c 13.255,0 24,10.745 24,24 v 80 c 0,13.255 -10.745,24 -24,24 h -80 c -13.255,0 -24,-10.745 -24,-24 z"
       id="path53" />
  </mask>
  <mask
     id="path-101-outside-5_0_1"
     maskUnits="userSpaceOnUse"
     x="1040"
     y="24"
     width="114"
     height="90"
     fill="#000000">
    <rect
       fill="#ffffff"
       x="1040"
       y="24"
       width="114"
       height="90"
       id="rect74" />
    <path
       d="m 1102.36,53.7227 v 0.2819 l -14.06,20.297 c -2.27,-0.1035 -4.56,0.2944 -6.73,1.1812 -0.94,0.3813 -1.84,0.8598 -2.69,1.4275 L 1048,64.2646 v 20.3928 l 24.09,8.9419 c 1.08,4.8677 4.46,9.1357 9.42,11.1877 3.9,1.611 8.29,1.617 12.19,0.018 3.91,-1.6 7.02,-4.675 8.65,-8.5506 0.86,-2.0641 1.28,-4.2873 1.22,-6.5236 l 20.11,-14.2837 0.49,0.0089 c 12.04,0 21.83,-9.7532 21.83,-21.7333 0,-11.9802 -9.77,-21.6977 -21.83,-21.7227 -12.04,0 -21.83,9.7425 -21.83,21.7227 z m -3.38,41.1292 c -2.61,6.2451 -9.81,9.1841 -16.08,6.5911 -2.78,-1.16 -5.03,-3.2952 -6.33,-5.9987 l 7.11,2.9263 c 1.1,0.4541 2.28,0.6887 3.47,0.6906 1.18,0.0019 2.36,-0.2291 3.46,-0.6796 1.1,-0.4506 2.1,-1.1119 2.94,-1.9463 0.84,-0.8343 1.51,-1.8253 1.97,-2.9163 0.92,-2.2045 0.93,-4.6832 0.01,-6.8917 -0.91,-2.2085 -2.67,-3.9661 -4.89,-4.8868 l -7.36,-3.0245 c 2.83,-1.0706 6.05,-1.1063 9.07,0.1374 3.05,1.2544 5.39,3.6169 6.64,6.6378 1.25,3.0209 1.24,6.3523 -0.02,9.3607 m 25.22,-26.6493 c -3.86,-0.0103 -7.56,-1.5397 -10.28,-4.2531 -2.73,-2.7134 -4.26,-6.3895 -4.26,-10.2233 0,-3.8331 1.53,-7.5083 4.26,-10.221 2.73,-2.7126 6.42,-4.2414 10.28,-4.2518 3.86,0.0094 7.56,1.5379 10.28,4.2506 2.73,2.7127 4.26,6.3885 4.27,10.2222 -0.01,3.8344 -1.54,7.5111 -4.27,10.2246 -2.72,2.7135 -6.42,4.2424 -10.28,4.2518 z m -10.9,-14.4996 c 0,-2.8804 1.15,-5.644 3.2,-7.6833 2.04,-2.0394 4.82,-3.1875 7.72,-3.1923 6.03,0 10.93,4.8713 10.93,10.8756 0,2.8811 -1.15,5.6449 -3.2,7.6836 -2.05,2.0388 -4.83,3.1856 -7.73,3.1885 -2.9,-0.0043 -5.68,-1.1518 -7.72,-3.1904 -2.05,-2.0386 -3.2,-4.8015 -3.2,-7.6817 z"
       id="path74" />
  </mask>
  <defs
     id="defs87" />
</svg>
