<svg width="128" height="128" viewBox="0 0 128 128" fill="none" xmlns="http://www.w3.org/2000/svg">
<rect x="4" y="4" width="120" height="120" rx="20" fill="#C5D5E4" stroke="#7E95A8" stroke-width="8"/>
<path d="M85.6387 23.0896L107.639 33.5138V98.231L85.6387 109.09L84.6387 86.5675L85.6387 23.0896Z" fill="#0478E5"/>
<path d="M17.8981 82.3888L79.9029 23.2009L86.4784 23.1788L86.3946 48.4076L27.5082 92.556L17.8981 82.3888Z" fill="#1E3BF5"/>
<path d="M29.1289 42.0896L80.1387 79.5675L85.6387 85.8804V109.09H78.7368L19.6387 50.8477L29.1289 42.0896Z" fill="#0478E5"/>
<path d="M67.46 66.5036L81.0079 76.8825V56.447L67.46 66.5036ZM109.639 96.5827C109.639 98.0957 108.785 99.4793 107.433 100.158L86.8018 110.511C86.2451 110.791 85.6308 110.936 85.0079 110.936H78.4053C77.3627 110.936 76.3611 110.529 75.6143 109.801L46.8672 81.7907L32.1006 92.7536C30.4789 93.9575 28.2138 93.7636 26.8204 92.3015L17.7432 82.777C17.0099 82.0075 16.6125 80.9774 16.6397 79.9147C16.667 78.852 17.1167 77.8429 17.8887 77.112L30.1505 65.5016L19.085 54.7204C18.296 53.9516 17.859 52.8912 17.877 51.7897C17.8951 50.6884 18.367 49.6436 19.1807 48.9011L28.2579 40.6179L28.3946 40.4987C29.8235 39.3077 31.8974 39.2562 33.3868 40.3972L46.2549 50.2556L76.0684 22.0319L76.21 21.903C76.934 21.2804 77.8593 20.9362 78.8184 20.9362H85.0079L85.2325 20.9421C85.7562 20.9716 86.2703 21.1044 86.7442 21.3327L107.375 31.2722C108.759 31.939 109.639 33.3395 109.639 34.8757V96.5827Z" stroke="#252662" stroke-width="8" stroke-linejoin="round"/>
</svg>
