<?xml version="1.0" encoding="UTF-8" standalone="no"?>
<svg
   width="128"
   height="128"
   viewBox="0 0 128 128"
   fill="none"
   version="1.1"
   id="svg87"
   xmlns="http://www.w3.org/2000/svg"
   xmlns:svg="http://www.w3.org/2000/svg">
  <mask
     id="path-2-outside-1_0_1"
     maskUnits="userSpaceOnUse"
     x="28"
     y="33"
     width="91"
     height="63"
     fill="#000000">
    <rect
       fill="#ffffff"
       x="28"
       y="33"
       width="91"
       height="63"
       id="rect2" />
    <path
       d="M 70.4251,63.2557 36.4705,79.7216 V 71.8977 L 61.5273,60.4943 61.2717,60.929 v -1.0995 l 0.2556,0.4603 -25.0568,-11.429 V 41.0625 L 70.4251,57.5284 Z M 110.605,81 v 6.4943 H 77.3413 V 81 Z"
       id="path2" />
  </mask>
  <mask
     id="path-5-outside-2_0_1"
     maskUnits="userSpaceOnUse"
     x="387"
     y="383"
     width="50"
     height="55"
     fill="#000000">
    <rect
       fill="#ffffff"
       x="387"
       y="383"
       width="50"
       height="55"
       id="rect5" />
    <path
       d="m 428.984,413.256 -33.955,16.466 v -7.824 l 25.057,-11.404 -0.256,0.435 v -1.099 l 0.256,0.46 -25.057,-11.429 v -7.799 l 33.955,16.466 z"
       id="path5" />
  </mask>
  <g
     id="g99"
     transform="translate(-6,-171)">
    <rect
       x="10"
       y="175"
       width="120"
       height="120"
       rx="20"
       fill="#c5d5e4"
       stroke="#7e95a8"
       stroke-width="8"
       id="rect23" />
    <circle
       cx="70"
       cy="230.754"
       r="27"
       fill="#5e45d2"
       stroke="#1e1d46"
       stroke-width="8"
       id="circle23" />
    <path
       d="m 83.5,211.754 c 13.5,10.188 2.2642,-22.092 9.5,-17.257 1,8 14.32,13.622 17.651,21.662 3.33,8.04 4.201,16.887 2.504,25.422 -1.698,8.535 -5.889,16.375 -12.042,22.529 -6.1538,6.153 -13.9939,10.344 -22.529,12.042 -8.5352,1.697 -17.3821,0.826 -25.4221,-2.504 C 45.122,270.317 38.2501,264.678 33.4153,257.442 28.5806,250.206 26,241.699 26,232.997 c 0,0 19,25.257 48.5,25.257 29.5,0 9,-46.5 9,-46.5 z"
       fill="url(#paint0_linear_0_1)"
       id="path24"
       style="fill:url(#paint0_linear_0_1)" />
    <path
       d="m 42.1963,219.227 c 2.3604,-3.949 7.7785,-11.812 10.9512,-9.98 -1.583,10.506 0.7561,13.092 1.248,15.195 2.4146,1.694 5.2796,3.414 10.6045,4.555 2.9999,10.5 -18.8203,16 -26,16 -7.1797,0 -13,-5.82 -13,-13 0,-4.184 2.8864,-10.792 5.8887,-13.896 2.6063,-4.134 7.3658,-10.524 10.2588,-8.854 -0.7013,4.654 -0.6303,7.753 -0.293,9.945 0.1151,0.012 0.2291,0.022 0.3418,0.035 z"
       fill="#cc5c3a"
       id="path25" />
    <path
       d="m 65,232.497 c 0,4.5 -11.5558,10.5 -16.0722,10.5 -4.5165,0 -8.1778,-2.91 -8.1778,-6.5 0,-3.59 3.6613,-6.5 8.1778,-6.5 4.5164,0 16.0722,-1.09 16.0722,2.5 z"
       fill="#e07d4f"
       id="path26" />
    <path
       d="m 88.2803,191.399 c 1.0742,-1.043 2.5057,-1.519 3.9648,-1.374 1.0899,0.109 2.0077,0.541 2.6963,0.965 l 0.2813,0.181 0.1767,0.126 c 0.8659,0.649 1.4344,1.624 1.5694,2.704 0.1204,0.963 0.6481,2.124 1.8496,3.605 1.2066,1.488 2.8356,2.995 4.7776,4.706 1.852,1.631 4.029,3.481 5.901,5.408 1.88,1.933 3.736,4.219 4.85,6.908 3.633,8.771 4.583,18.422 2.731,27.733 -1.852,9.311 -6.424,17.865 -13.137,24.577 -6.7125,6.713 -15.2657,11.285 -24.5767,13.137 -9.3111,1.852 -18.9626,0.901 -27.7334,-2.732 C 42.8602,273.71 35.3641,267.557 30.0898,259.664 24.8156,251.771 22,242.491 22,232.997 c 0,-0.113 0.0053,-0.226 0.0146,-0.337 C 22.0062,232.44 22,232.219 22,231.997 c 0,-2.852 0.9388,-6.118 2.1406,-8.927 1.1495,-2.686 2.7465,-5.433 4.5752,-7.432 1.3492,-2.111 3.2762,-4.847 5.3457,-6.948 1.0691,-1.085 2.3968,-2.231 3.8985,-2.952 1.53,-0.734 3.875,-1.29 6.1875,0.045 0.8326,0.481 1.4407,1.232 1.7558,2.097 0.7973,-0.726 1.674,-1.401 2.6094,-1.912 1.5341,-0.838 4.0864,-1.656 6.6348,-0.185 1.4245,0.823 2.2,2.433 1.955,4.06 -0.7411,4.918 -0.5224,7.707 -0.1884,9.362 0.167,0.828 0.3798,1.459 0.6005,2.047 0.0574,0.153 0.1434,0.375 0.2422,0.635 1.7319,1.12 3.8308,2.189 7.2305,3.006 l 0.8506,0.193 0.2676,0.067 c 1.3194,0.38 2.3595,1.413 2.7402,2.745 0.6174,2.162 0.5454,4.178 0.0078,6.001 -0.432,2.083 -1.7453,3.77 -2.8515,4.915 -0.037,0.039 -0.0758,0.076 -0.1133,0.114 -2.1248,2.286 -4.9979,4.054 -7.8848,5.403 -1.1004,0.539 -2.208,1.018 -3.2773,1.412 -0.5621,0.207 -1.1462,0.399 -1.7364,0.571 -1.2388,0.414 -2.4867,0.779 -3.7129,1.099 7.0077,3.879 15.533,6.841 25.2227,6.841 3.1657,0 5.3611,-0.623 6.8965,-1.485 1.5075,-0.848 2.6003,-2.049 3.3926,-3.6 1.6736,-3.277 1.9922,-8.106 1.3037,-13.674 -0.6729,-5.442 -2.2254,-10.973 -3.6436,-15.205 -0.7041,-2.101 -1.3642,-3.85 -1.8457,-5.067 -0.2404,-0.608 -0.4353,-1.082 -0.5683,-1.399 -0.0666,-0.158 -0.1182,-0.278 -0.1514,-0.355 -0.0165,-0.038 -0.0287,-0.066 -0.0361,-0.083 -0.0038,-0.009 -0.0065,-0.015 -0.0079,-0.018 -6e-4,-0.001 -9e-4,-0.003 -9e-4,-0.003 -0.7333,-1.666 -0.2493,-3.617 1.1777,-4.747 1.4276,-1.13 3.4389,-1.154 4.8926,-0.057 0.2381,0.179 0.4546,0.331 0.6474,0.461 0.094,-1.026 0.096,-2.291 0.045,-3.749 -0.0935,-2.668 -0.4267,-6.518 -0.2276,-9.005 0.055,-0.688 0.1588,-1.464 0.378,-2.217 0.2049,-0.705 0.6157,-1.765 1.5283,-2.652 z"
       stroke="#682d22"
       stroke-width="8"
       stroke-linejoin="round"
       id="path27" />
  </g>
  <mask
     id="mask0_0_1"
     maskUnits="userSpaceOnUse"
     x="520"
     y="1"
     width="126"
     height="126">
    <rect
       x="524"
       y="5"
       width="118"
       height="118"
       rx="24"
       fill="#bcbdbf"
       stroke="#ffffff"
       stroke-width="8"
       id="rect41" />
  </mask>
  <mask
     id="path-55-inside-3_0_1"
     fill="#ffffff">
    <path
       d="M 519,24 C 519,10.7452 529.745,0 543,0 h 80 c 13.255,0 24,10.7452 24,24 v 80 c 0,13.255 -10.745,24 -24,24 h -80 c -13.255,0 -24,-10.745 -24,-24 z"
       id="path45" />
  </mask>
  <mask
     id="mask1_0_1"
     maskUnits="userSpaceOnUse"
     x="520"
     y="173"
     width="126"
     height="126">
    <rect
       x="524"
       y="177"
       width="118"
       height="118"
       rx="24"
       fill="#bcbdbf"
       stroke="#ffffff"
       stroke-width="8"
       id="rect48" />
  </mask>
  <mask
     id="path-65-inside-4_0_1"
     fill="#ffffff">
    <path
       d="m 519,196 c 0,-13.255 10.745,-24 24,-24 h 80 c 13.255,0 24,10.745 24,24 v 80 c 0,13.255 -10.745,24 -24,24 h -80 c -13.255,0 -24,-10.745 -24,-24 z"
       id="path53" />
  </mask>
  <mask
     id="path-101-outside-5_0_1"
     maskUnits="userSpaceOnUse"
     x="1040"
     y="24"
     width="114"
     height="90"
     fill="#000000">
    <rect
       fill="#ffffff"
       x="1040"
       y="24"
       width="114"
       height="90"
       id="rect74" />
    <path
       d="m 1102.36,53.7227 v 0.2819 l -14.06,20.297 c -2.27,-0.1035 -4.56,0.2944 -6.73,1.1812 -0.94,0.3813 -1.84,0.8598 -2.69,1.4275 L 1048,64.2646 v 20.3928 l 24.09,8.9419 c 1.08,4.8677 4.46,9.1357 9.42,11.1877 3.9,1.611 8.29,1.617 12.19,0.018 3.91,-1.6 7.02,-4.675 8.65,-8.5506 0.86,-2.0641 1.28,-4.2873 1.22,-6.5236 l 20.11,-14.2837 0.49,0.0089 c 12.04,0 21.83,-9.7532 21.83,-21.7333 0,-11.9802 -9.77,-21.6977 -21.83,-21.7227 -12.04,0 -21.83,9.7425 -21.83,21.7227 z m -3.38,41.1292 c -2.61,6.2451 -9.81,9.1841 -16.08,6.5911 -2.78,-1.16 -5.03,-3.2952 -6.33,-5.9987 l 7.11,2.9263 c 1.1,0.4541 2.28,0.6887 3.47,0.6906 1.18,0.0019 2.36,-0.2291 3.46,-0.6796 1.1,-0.4506 2.1,-1.1119 2.94,-1.9463 0.84,-0.8343 1.51,-1.8253 1.97,-2.9163 0.92,-2.2045 0.93,-4.6832 0.01,-6.8917 -0.91,-2.2085 -2.67,-3.9661 -4.89,-4.8868 l -7.36,-3.0245 c 2.83,-1.0706 6.05,-1.1063 9.07,0.1374 3.05,1.2544 5.39,3.6169 6.64,6.6378 1.25,3.0209 1.24,6.3523 -0.02,9.3607 m 25.22,-26.6493 c -3.86,-0.0103 -7.56,-1.5397 -10.28,-4.2531 -2.73,-2.7134 -4.26,-6.3895 -4.26,-10.2233 0,-3.8331 1.53,-7.5083 4.26,-10.221 2.73,-2.7126 6.42,-4.2414 10.28,-4.2518 3.86,0.0094 7.56,1.5379 10.28,4.2506 2.73,2.7127 4.26,6.3885 4.27,10.2222 -0.01,3.8344 -1.54,7.5111 -4.27,10.2246 -2.72,2.7135 -6.42,4.2424 -10.28,4.2518 z m -10.9,-14.4996 c 0,-2.8804 1.15,-5.644 3.2,-7.6833 2.04,-2.0394 4.82,-3.1875 7.72,-3.1923 6.03,0 10.93,4.8713 10.93,10.8756 0,2.8811 -1.15,5.6449 -3.2,7.6836 -2.05,2.0388 -4.83,3.1856 -7.73,3.1885 -2.9,-0.0043 -5.68,-1.1518 -7.72,-3.1904 -2.05,-2.0386 -3.2,-4.8015 -3.2,-7.6817 z"
       id="path74" />
  </mask>
  <defs
     id="defs87">
    <linearGradient
       id="paint0_linear_0_1"
       x1="114"
       y1="235.121"
       x2="49"
       y2="235.121"
       gradientUnits="userSpaceOnUse">
      <stop
         stop-color="#EDB959"
         id="stop78" />
      <stop
         offset="0.413362"
         stop-color="#EBAA58"
         id="stop79" />
      <stop
         offset="0.413462"
         stop-color="#E68855"
         id="stop80" />
      <stop
         offset="0.9999"
         stop-color="#D97247"
         id="stop81" />
      <stop
         offset="1"
         stop-color="#CC5C3A"
         id="stop82" />
    </linearGradient>
  </defs>
</svg>
