<svg width="128" height="128" viewBox="0 0 128 128" fill="none" xmlns="http://www.w3.org/2000/svg">
<rect x="4" y="4" width="120" height="120" rx="20" fill="#C5D5E4" stroke="#7E95A8" stroke-width="8"/>
<circle cx="64" cy="59.7538" r="27" fill="#5E45D2" stroke="#1E1D46" stroke-width="8"/>
<path d="M77.5 40.7538C91 50.9424 79.7642 18.6622 87 23.497C88 31.497 101.32 37.119 104.651 45.159C107.981 53.1989 108.852 62.0459 107.155 70.581C105.457 79.1162 101.266 86.9562 95.1127 93.1097C88.9592 99.2633 81.1191 103.454 72.584 105.152C64.0488 106.849 55.2019 105.978 47.1619 102.648C39.122 99.3175 32.2501 93.6779 27.4153 86.4421C22.5806 79.2064 20 70.6994 20 61.997C20 61.997 39 87.2538 68.5 87.2538C98 87.2538 77.5 40.7538 77.5 40.7538Z" fill="url(#paint0_linear_1_187)"/>
<path d="M36.1963 48.2266C38.5567 44.2776 43.9748 36.4154 47.1475 38.2471C45.5645 48.7526 47.9036 51.3394 48.3955 53.4424C50.8101 55.1355 53.6751 56.8561 59 57.9971C61.9999 68.4971 40.1797 73.9971 33 73.9971C25.8203 73.9971 20 68.1768 20 60.9971C20 56.8135 22.8864 50.2055 25.8887 47.1006C28.495 42.9671 33.2545 36.5768 36.1475 38.2471C35.4462 42.901 35.5172 46.0003 35.8545 48.1924C35.9696 48.2037 36.0836 48.2144 36.1963 48.2266Z" fill="#CC5C3A"/>
<path d="M59 61.497C59 65.997 47.4442 71.997 42.9278 71.997C38.4113 71.997 34.75 69.0869 34.75 65.497C34.75 61.9072 38.4113 58.997 42.9278 58.997C47.4442 58.997 59 57.9072 59 61.497Z" fill="#E07D4F"/>
<path d="M82.2803 20.3994C83.3545 19.3555 84.786 18.8804 86.2451 19.0254C87.335 19.1338 88.2528 19.5657 88.9414 19.9902L89.2227 20.1709L89.3994 20.2969C90.2653 20.946 90.8338 21.921 90.9688 23.001C91.0892 23.9644 91.6169 25.1247 92.8184 26.6064C94.0248 28.0943 95.6543 29.6013 97.5957 31.3115C99.4476 32.943 101.625 34.7934 103.497 36.7197C105.377 38.6534 107.233 40.9387 108.347 43.6279C111.98 52.3987 112.93 62.0503 111.078 71.3613C109.226 80.6724 104.654 89.2256 97.9414 95.9385C91.2285 102.651 82.6753 107.223 73.3643 109.075C64.0532 110.927 54.4017 109.976 45.6309 106.343C36.8602 102.71 29.3641 96.5575 24.0898 88.6641C18.8156 80.7705 16 71.4905 16 61.9971C16 61.8839 16.0053 61.7715 16.0146 61.6602C16.0062 61.4402 16 61.2191 16 60.9971C16 58.1447 16.9388 54.8787 18.1406 52.0703C19.2901 49.3844 20.8871 46.6374 22.7158 44.6377C24.065 42.5274 25.992 39.791 28.0615 37.6904C29.1306 36.6053 30.4583 35.4588 31.96 34.7383C33.49 34.0042 35.835 33.4481 38.1475 34.7832C38.9801 35.2639 39.5882 36.0148 39.9033 36.8799C40.7006 36.1545 41.5773 35.4786 42.5127 34.9678C44.0468 34.13 46.5991 33.3119 49.1475 34.7832C50.572 35.6057 51.3475 37.2162 51.1025 38.8428C50.3614 43.7615 50.5801 46.5498 50.9141 48.2051C51.0811 49.0328 51.2939 49.6639 51.5146 50.252C51.572 50.4048 51.658 50.627 51.7568 50.8867C53.4887 52.0074 55.5876 53.0758 58.9873 53.8926L59.8379 54.0859L60.1055 54.1533C61.4249 54.5325 62.465 55.5661 62.8457 56.8984C63.4631 59.0595 63.3911 61.0759 62.8535 62.8994C62.4215 64.9816 61.1082 66.6686 60.002 67.8145C59.965 67.8528 59.9262 67.8896 59.8887 67.9277C57.7639 70.2142 54.8908 71.9815 52.0039 73.3311C50.9035 73.8702 49.7959 74.3494 48.7266 74.7432C48.1645 74.9501 47.5804 75.1416 46.9902 75.3145C45.7514 75.7284 44.5035 76.0934 43.2773 76.4131C50.285 80.2922 58.8103 83.2539 68.5 83.2539C71.6657 83.2539 73.8611 82.6313 75.3965 81.7686C76.904 80.9214 77.9968 79.7201 78.7891 78.1689C80.4627 74.8922 80.7813 70.0632 80.0928 64.4951C79.4199 59.0533 77.8674 53.5218 76.4492 49.29C75.7451 47.1891 75.085 45.4399 74.6035 44.2227C74.3631 43.615 74.1682 43.1413 74.0352 42.8242C73.9686 42.6657 73.917 42.5458 73.8838 42.4688C73.8673 42.4305 73.8551 42.4028 73.8477 42.3857C73.8439 42.3772 73.8412 42.3712 73.8398 42.3682C73.8392 42.3667 73.8389 42.3654 73.8389 42.3652C73.1056 40.6993 73.5896 38.7483 75.0166 37.6182C76.4442 36.4877 78.4555 36.4638 79.9092 37.5605C80.1473 37.7402 80.3638 37.8921 80.5566 38.0225C80.6506 36.9963 80.6526 35.7307 80.6016 34.2734C80.5081 31.6049 80.1749 27.7551 80.374 25.2676C80.429 24.5805 80.5328 23.8044 80.752 23.0508C80.9569 22.3461 81.3677 21.2864 82.2803 20.3994Z" stroke="#682D22" stroke-width="8" stroke-linejoin="round"/>
<defs>
<linearGradient id="paint0_linear_1_187" x1="108" y1="64.1213" x2="43" y2="64.1213" gradientUnits="userSpaceOnUse">
<stop stop-color="#EDB959"/>
<stop offset="0.413362" stop-color="#EBAA58"/>
<stop offset="0.413462" stop-color="#E68855"/>
<stop offset="0.9999" stop-color="#D97247"/>
<stop offset="1" stop-color="#CC5C3A"/>
</linearGradient>
</defs>
</svg>
