<svg width="128" height="128" viewBox="0 0 128 128" fill="none" xmlns="http://www.w3.org/2000/svg">
<rect x="4" y="4" width="120" height="120" rx="20" fill="#C5D5E4" stroke="#7E95A8" stroke-width="8"/>
<path d="M64.017 32C79.5406 32 92.017 44.3713 92.017 59.5C92.017 74.6287 79.5406 87 64.017 87C48.4934 87 36.017 74.6287 36.017 59.5C36.017 44.3713 48.4934 32 64.017 32Z" fill="#458DD2" stroke="#273F6B" stroke-width="8"/>
<path d="M77.8263 40.1799C91.6525 50.6148 80.1452 17.5545 87.5558 22.5061C88.58 30.6994 102.222 36.4573 105.633 44.6916C109.044 52.9258 109.936 61.9866 108.197 70.728C106.459 79.4695 102.167 87.499 95.8646 93.8012C89.5624 100.103 81.5329 104.395 72.7914 106.134C64.05 107.873 54.9892 106.98 46.755 103.57C38.5207 100.159 31.4828 94.3831 26.5311 86.9725C21.5795 79.5618 18.9366 70.8493 18.9366 61.9366C18.9366 61.9366 38.3958 87.8037 68.6087 87.8037C98.8217 87.8037 77.8263 40.1799 77.8263 40.1799Z" fill="url(#paint0_linear_1_363)"/>
<path d="M35.5243 47.8333C37.9418 43.7889 43.4908 35.7366 46.7401 37.6126C45.119 48.3721 47.5145 51.0213 48.0184 53.1752C50.4913 54.9092 53.4256 56.6714 58.8791 57.84C61.9515 68.5937 39.604 74.2267 32.2508 74.2267C24.8976 74.2267 18.9366 68.2657 18.9366 60.9125C18.9366 56.6277 21.8927 49.86 24.9676 46.6801C27.6369 42.4467 32.5114 35.902 35.4743 37.6126C34.7561 42.379 34.8288 45.5532 35.1742 47.7983C35.2922 47.8099 35.4089 47.8208 35.5243 47.8333Z" fill="#366DA2"/>
<path d="M58.8791 61.4245C58.8791 66.0332 47.0441 72.1783 42.4185 72.1783C37.7929 72.1783 34.0431 69.1978 34.0431 65.5212C34.0431 61.8446 37.7929 58.8641 42.4185 58.8641C47.0441 58.8641 58.8791 57.7479 58.8791 61.4245Z" fill="#448DD2"/>
<path d="M82.7891 19.4033C83.8683 18.3545 85.3057 17.8768 86.7725 18.0224C87.8694 18.1314 88.7953 18.5668 89.4932 18.9971L89.7784 19.1806L89.9551 19.3056C90.8211 19.9548 91.3894 20.9298 91.5245 22.0098C91.6509 23.0215 92.2031 24.2271 93.4395 25.7519C94.6808 27.2828 96.3556 28.8305 98.3438 30.582C100.242 32.2546 102.468 34.1459 104.382 36.1152C106.303 38.092 108.194 40.4231 109.328 43.1611C113.042 52.1263 114.013 61.9914 112.12 71.5088C110.227 81.0259 105.555 89.7684 98.6934 96.6299C91.8318 103.492 83.0887 108.164 73.5714 110.058C64.0543 111.951 54.1895 110.979 45.2247 107.266C36.2595 103.552 28.5963 97.2628 23.2051 89.1943C17.8141 81.126 14.9366 71.6402 14.9366 61.9365C14.9366 61.8226 14.9418 61.7096 14.9512 61.5976C14.9424 61.3703 14.9366 61.1416 14.9366 60.9121C14.9367 58.0094 15.8929 54.6787 17.1212 51.8086C18.2972 49.0606 19.93 46.2537 21.796 44.2158C23.1764 42.056 25.1472 39.2566 27.2618 37.1103C28.3536 36.0021 29.7043 34.8373 31.2276 34.1064C32.7792 33.362 35.1447 32.8032 37.4747 34.1484C38.3505 34.6542 38.9795 35.4587 39.2784 36.3808C40.1188 35.6048 41.0476 34.8804 42.0391 34.3389C43.5972 33.4879 46.1727 32.666 48.7403 34.1484C50.1649 34.971 50.9405 36.5823 50.6954 38.209C49.9352 43.2543 50.1583 46.1211 50.503 47.8301C50.6754 48.685 50.8959 49.3371 51.1231 49.9424C51.1848 50.1067 51.2769 50.3444 51.3819 50.6211C53.3117 51.873 55.6815 53.0639 59.7169 53.9287C61.1621 54.2384 62.3196 55.32 62.7256 56.7412C63.3529 58.9367 63.2788 60.9855 62.7315 62.8389C62.2951 64.9453 60.9647 66.657 59.835 67.8271C59.8004 67.863 59.7646 67.8979 59.7296 67.9336C57.5606 70.2721 54.619 72.0812 51.6583 73.4639C50.5385 74.0119 49.412 74.4988 48.3243 74.8994C47.7466 75.1121 47.1472 75.3103 46.5421 75.4873C45.1984 75.936 43.8442 76.3277 42.5176 76.668C49.7453 80.7046 58.5667 83.8036 68.6085 83.8037C71.8635 83.8037 74.1297 83.164 75.7198 82.2705C77.2821 81.3926 78.4133 80.1469 79.2325 78.543C80.96 75.1607 81.2831 70.1912 80.5772 64.4824C79.8869 58.9004 78.2953 53.2295 76.8419 48.8926C76.1201 46.7388 75.4439 44.9453 74.9503 43.6973C74.7037 43.0738 74.5028 42.588 74.3663 42.2627C74.298 42.1001 74.2461 41.9776 74.212 41.8984C74.195 41.8589 74.1826 41.8301 74.1749 41.8125C74.1712 41.8041 74.1685 41.7982 74.1671 41.7949L74.1651 41.792V41.791C73.432 40.1251 73.9158 38.174 75.3428 37.0439C76.7706 35.9134 78.7817 35.8903 80.2354 36.9873C80.5367 37.2147 80.805 37.3981 81.0372 37.5508C81.0396 37.527 81.0436 37.503 81.046 37.4785C81.1509 36.406 81.1535 35.0741 81.0997 33.539C81.0035 30.7957 80.6629 26.8675 80.8663 24.3271C80.9224 23.6267 81.0281 22.8385 81.2501 22.0752C81.4578 21.361 81.8718 20.2949 82.7891 19.4033Z" stroke="#223B68" stroke-width="8" stroke-linejoin="round"/>
<defs>
<linearGradient id="paint0_linear_1_363" x1="109.063" y1="64.1121" x2="42.4925" y2="64.1121" gradientUnits="userSpaceOnUse">
<stop stop-color="#86BEF4"/>
<stop offset="0.413362" stop-color="#86BEF4"/>
<stop offset="0.413462" stop-color="#448DD2"/>
<stop offset="0.9999" stop-color="#448DD2"/>
<stop offset="1" stop-color="#366DA2"/>
</linearGradient>
</defs>
</svg>
