<?xml version="1.0" encoding="UTF-8" standalone="no"?>
<svg
   width="128"
   height="128"
   viewBox="0 0 128 128"
   fill="none"
   version="1.1"
   id="svg87"
   xmlns="http://www.w3.org/2000/svg"
   xmlns:svg="http://www.w3.org/2000/svg">
  <mask
     id="path-2-outside-1_0_1"
     maskUnits="userSpaceOnUse"
     x="28"
     y="33"
     width="91"
     height="63"
     fill="#000000">
    <rect
       fill="#ffffff"
       x="28"
       y="33"
       width="91"
       height="63"
       id="rect2" />
    <path
       d="M 70.4251,63.2557 36.4705,79.7216 V 71.8977 L 61.5273,60.4943 61.2717,60.929 v -1.0995 l 0.2556,0.4603 -25.0568,-11.429 V 41.0625 L 70.4251,57.5284 Z M 110.605,81 v 6.4943 H 77.3413 V 81 Z"
       id="path2" />
  </mask>
  <mask
     id="path-5-outside-2_0_1"
     maskUnits="userSpaceOnUse"
     x="387"
     y="383"
     width="50"
     height="55"
     fill="#000000">
    <rect
       fill="#ffffff"
       x="387"
       y="383"
       width="50"
       height="55"
       id="rect5" />
    <path
       d="m 428.984,413.256 -33.955,16.466 v -7.824 l 25.057,-11.404 -0.256,0.435 v -1.099 l 0.256,0.46 -25.057,-11.429 v -7.799 l 33.955,16.466 z"
       id="path5" />
  </mask>
  <mask
     id="mask0_0_1"
     maskUnits="userSpaceOnUse"
     x="520"
     y="1"
     width="126"
     height="126">
    <rect
       x="524"
       y="5"
       width="118"
       height="118"
       rx="24"
       fill="#bcbdbf"
       stroke="#ffffff"
       stroke-width="8"
       id="rect41" />
  </mask>
  <mask
     id="path-55-inside-3_0_1"
     fill="#ffffff">
    <path
       d="M 519,24 C 519,10.7452 529.745,0 543,0 h 80 c 13.255,0 24,10.7452 24,24 v 80 c 0,13.255 -10.745,24 -24,24 h -80 c -13.255,0 -24,-10.745 -24,-24 z"
       id="path45" />
  </mask>
  <g
     id="g90"
     transform="translate(-519)">
    <rect
       x="523"
       y="4"
       width="120"
       height="120"
       rx="20"
       fill="#c5d5e4"
       stroke="#7e95a8"
       stroke-width="8"
       id="rect40" />
    <g
       mask="url(#mask0_0_1)"
       id="g44">
      <path
         d="M 582.995,36.6002 640.5,36.6068 C 638.5,26.5 642.926,13.845 634.5,9.00008 626.074,4.15515 557.23,4.99932 547.5,5 c -9.73,6.7e-4 -12.574,3.6539 -21,8.5 -8.426,4.8461 2.863,-1.8925 -2,6.5 l 34.493,58.0001 0.021,-0.0055 c -2.441,-4.1923 -3.729,-8.9514 -3.735,-13.7976 -0.005,-4.8461 1.272,-9.6081 3.704,-13.8058 2.432,-4.1978 5.932,-7.6829 10.148,-10.1041 4.216,-2.4212 8.998,-3.6929 13.864,-3.6869 z"
         fill="#d93025"
         id="path41" />
      <path
         d="m 603,84 -23,40 c 9.653,0.001 23.64,4.798 32,0 8.36,-4.798 22.174,0.311 27,-8 4.826,-8.311 1.502,-54.4036 1.5,-64 -0.002,-9.5964 4.829,-7.6907 0,-16 l -57.501,-1 c 4.829,-0.0093 9.568,3.2683 13.753,5.6635 4.184,2.3952 7.659,5.8446 10.074,10.0005 2.416,4.1559 3.687,8.8715 3.684,13.6713 C 610.505,75 605.419,79.8463 603,84 Z"
         fill="#fcc934"
         id="path42" />
      <path
         d="M 559.25,78.0003 524.5,20 c -4.84,8.3107 -1.5,34.4028 -1.5,44 0,9.5972 -4.839,22.1889 0,30.5 4.839,8.311 1.619,21.703 10,26.5 8.381,4.797 38.823,0.003 48.5,0 l 25.494,-43.0001 -0.016,-0.0155 c -2.412,4.1616 -5.887,7.6191 -10.076,10.0238 -4.189,2.4048 -8.943,3.6718 -13.783,3.6734 -4.84,0.0017 -9.595,-1.2622 -13.786,-3.6642 -4.19,-2.4019 -7.668,-5.8571 -10.083,-10.0171 z"
         fill="#1e8e3e"
         id="path43" />
      <path
         d="m 583,37 c 14.912,0 27,12.0883 27,27 0,14.9117 -12.088,27 -27,27 -14.912,0 -27,-12.0883 -27,-27 0,-14.9117 12.088,-27 27,-27 z"
         fill="#1a73e8"
         stroke="#ffffff"
         stroke-width="12"
         id="path44" />
    </g>
    <path
       d="m 543,0 v 8 h 80 V 0 -8 h -80 z m 104,24 h -8 v 80 h 8 8 V 24 Z m -24,104 v -8 h -80 v 8 8 h 80 z M 519,104 h 8 V 24 h -8 -8 v 80 z m 24,24 v -8 c -8.837,0 -16,-7.163 -16,-16 h -8 -8 c 0,17.673 14.327,32 32,32 z m 104,-24 h -8 c 0,8.837 -7.163,16 -16,16 v 8 8 c 17.673,0 32,-14.327 32,-32 z M 623,0 v 8 c 8.837,0 16,7.1634 16,16 h 8 8 C 655,6.32689 640.673,-8 623,-8 Z m -80,0 v -8 c -17.673,0 -32,14.32689 -32,32 h 8 8 c 0,-8.8366 7.163,-16 16,-16 z"
       data-figma-gradient-fill="{&quot;type&quot;:&quot;GRADIENT_ANGULAR&quot;,&quot;stops&quot;:[{&quot;color&quot;:{&quot;r&quot;:0.14603365957736969,&quot;g&quot;:0.3750,&quot;b&quot;:0.32920673489570618,&quot;a&quot;:1.0},&quot;position&quot;:0.0},{&quot;color&quot;:{&quot;r&quot;:0.19277825951576233,&quot;g&quot;:0.33903831243515015,&quot;b&quot;:0.29732403159141541,&quot;a&quot;:1.0},&quot;position&quot;:0.37490001320838928},{&quot;color&quot;:{&quot;r&quot;:0.43750,&quot;g&quot;:0.15076829493045807,&quot;b&quot;:0.13040865957736969,&quot;a&quot;:1.0},&quot;position&quot;:0.3750},{&quot;color&quot;:{&quot;r&quot;:0.43921568989753723,&quot;g&quot;:0.14901961386203766,&quot;b&quot;:0.12941177189350128,&quot;a&quot;:1.0},&quot;position&quot;:0.69190770387649536},{&quot;color&quot;:{&quot;r&quot;:0.48076921701431274,&quot;g&quot;:0.34763312339782715,&quot;b&quot;:0.23113904893398285,&quot;a&quot;:1.0},&quot;position&quot;:0.69200772047042847},{&quot;color&quot;:{&quot;r&quot;:0.48235294222831726,&quot;g&quot;:0.34901961684226990,&quot;b&quot;:0.23137255012989044,&quot;a&quot;:1.0},&quot;position&quot;:1.0}],&quot;stopsVar&quot;:[{&quot;color&quot;:{&quot;r&quot;:0.14603365957736969,&quot;g&quot;:0.3750,&quot;b&quot;:0.32920673489570618,&quot;a&quot;:1.0},&quot;position&quot;:0.0},{&quot;color&quot;:{&quot;r&quot;:0.19277825951576233,&quot;g&quot;:0.33903831243515015,&quot;b&quot;:0.29732403159141541,&quot;a&quot;:1.0},&quot;position&quot;:0.37490001320838928},{&quot;color&quot;:{&quot;r&quot;:0.43750,&quot;g&quot;:0.15076829493045807,&quot;b&quot;:0.13040865957736969,&quot;a&quot;:1.0},&quot;position&quot;:0.3750},{&quot;color&quot;:{&quot;r&quot;:0.43921568989753723,&quot;g&quot;:0.14901961386203766,&quot;b&quot;:0.12941177189350128,&quot;a&quot;:1.0},&quot;position&quot;:0.69190770387649536},{&quot;color&quot;:{&quot;r&quot;:0.48076921701431274,&quot;g&quot;:0.34763312339782715,&quot;b&quot;:0.23113904893398285,&quot;a&quot;:1.0},&quot;position&quot;:0.69200772047042847},{&quot;color&quot;:{&quot;r&quot;:0.48235294222831726,&quot;g&quot;:0.34901961684226990,&quot;b&quot;:0.23137255012989044,&quot;a&quot;:1.0},&quot;position&quot;:1.0}],&quot;transform&quot;:{&quot;m00&quot;:7.8377398565450743e-15,&quot;m01&quot;:-128.0,&quot;m02&quot;:647.0,&quot;m10&quot;:128.0,&quot;m11&quot;:7.8377398565450743e-15,&quot;m12&quot;:-7.8377398565450743e-15},&quot;opacity&quot;:1.0,&quot;blendMode&quot;:&quot;NORMAL&quot;,&quot;visible&quot;:true}"
       mask="url(#path-55-inside-3_0_1)"
       id="path46" />
    <path
       d="m 583,27 c 20.435,0 37,16.5655 37,37 0,20.4345 -16.565,37 -37,37 -20.435,0 -37,-16.5655 -37,-37 0,-20.4345 16.565,-37 37,-37 z"
       stroke="#afafaf"
       stroke-width="8"
       id="path47" />
  </g>
  <mask
     id="mask1_0_1"
     maskUnits="userSpaceOnUse"
     x="520"
     y="173"
     width="126"
     height="126">
    <rect
       x="524"
       y="177"
       width="118"
       height="118"
       rx="24"
       fill="#bcbdbf"
       stroke="#ffffff"
       stroke-width="8"
       id="rect48" />
  </mask>
  <mask
     id="path-65-inside-4_0_1"
     fill="#ffffff">
    <path
       d="m 519,196 c 0,-13.255 10.745,-24 24,-24 h 80 c 13.255,0 24,10.745 24,24 v 80 c 0,13.255 -10.745,24 -24,24 h -80 c -13.255,0 -24,-10.745 -24,-24 z"
       id="path53" />
  </mask>
  <mask
     id="path-101-outside-5_0_1"
     maskUnits="userSpaceOnUse"
     x="1040"
     y="24"
     width="114"
     height="90"
     fill="#000000">
    <rect
       fill="#ffffff"
       x="1040"
       y="24"
       width="114"
       height="90"
       id="rect74" />
    <path
       d="m 1102.36,53.7227 v 0.2819 l -14.06,20.297 c -2.27,-0.1035 -4.56,0.2944 -6.73,1.1812 -0.94,0.3813 -1.84,0.8598 -2.69,1.4275 L 1048,64.2646 v 20.3928 l 24.09,8.9419 c 1.08,4.8677 4.46,9.1357 9.42,11.1877 3.9,1.611 8.29,1.617 12.19,0.018 3.91,-1.6 7.02,-4.675 8.65,-8.5506 0.86,-2.0641 1.28,-4.2873 1.22,-6.5236 l 20.11,-14.2837 0.49,0.0089 c 12.04,0 21.83,-9.7532 21.83,-21.7333 0,-11.9802 -9.77,-21.6977 -21.83,-21.7227 -12.04,0 -21.83,9.7425 -21.83,21.7227 z m -3.38,41.1292 c -2.61,6.2451 -9.81,9.1841 -16.08,6.5911 -2.78,-1.16 -5.03,-3.2952 -6.33,-5.9987 l 7.11,2.9263 c 1.1,0.4541 2.28,0.6887 3.47,0.6906 1.18,0.0019 2.36,-0.2291 3.46,-0.6796 1.1,-0.4506 2.1,-1.1119 2.94,-1.9463 0.84,-0.8343 1.51,-1.8253 1.97,-2.9163 0.92,-2.2045 0.93,-4.6832 0.01,-6.8917 -0.91,-2.2085 -2.67,-3.9661 -4.89,-4.8868 l -7.36,-3.0245 c 2.83,-1.0706 6.05,-1.1063 9.07,0.1374 3.05,1.2544 5.39,3.6169 6.64,6.6378 1.25,3.0209 1.24,6.3523 -0.02,9.3607 m 25.22,-26.6493 c -3.86,-0.0103 -7.56,-1.5397 -10.28,-4.2531 -2.73,-2.7134 -4.26,-6.3895 -4.26,-10.2233 0,-3.8331 1.53,-7.5083 4.26,-10.221 2.73,-2.7126 6.42,-4.2414 10.28,-4.2518 3.86,0.0094 7.56,1.5379 10.28,4.2506 2.73,2.7127 4.26,6.3885 4.27,10.2222 -0.01,3.8344 -1.54,7.5111 -4.27,10.2246 -2.72,2.7135 -6.42,4.2424 -10.28,4.2518 z m -10.9,-14.4996 c 0,-2.8804 1.15,-5.644 3.2,-7.6833 2.04,-2.0394 4.82,-3.1875 7.72,-3.1923 6.03,0 10.93,4.8713 10.93,10.8756 0,2.8811 -1.15,5.6449 -3.2,7.6836 -2.05,2.0388 -4.83,3.1856 -7.73,3.1885 -2.9,-0.0043 -5.68,-1.1518 -7.72,-3.1904 -2.05,-2.0386 -3.2,-4.8015 -3.2,-7.6817 z"
       id="path74" />
  </mask>
  <defs
     id="defs87" />
</svg>
