<svg width="128" height="128" viewBox="0 0 128 128" fill="none" xmlns="http://www.w3.org/2000/svg">
<path d="M104 4C115.046 4 124 12.9543 124 24V104C124 115.046 115.046 124 104 124H24C12.9543 124 4 115.046 4 104V4H104Z" fill="#7287FD" stroke="#4C4F69" stroke-width="8"/>
<path d="M31 19H97C108.046 19 117 27.9543 117 39V71H11V39C11 27.9543 19.9543 19 31 19Z" fill="#CCD0DA" stroke="#6C6F85" stroke-width="8"/>
<rect x="4" y="44" width="120" height="80" rx="20" fill="#7287FD" stroke="#4C4F69" stroke-width="8"/>
<path d="M71.5254 53.0498C72.5335 52.9068 73.5077 53.0881 74.3682 53.375L74.6846 53.4863C77.9248 54.6868 80.1366 57.3794 81.7861 59.7588C82.6562 61.0139 83.4966 62.3798 84.251 63.5625C84.8912 64.5662 85.4922 65.4718 86.0967 66.2705C92.2515 69.1964 97.4865 73.7118 100.688 79.5586C104.032 85.6682 105.049 93.0466 102.784 101.153L102.785 101.154C102.017 103.91 101.906 104.414 101.915 104.779C101.917 104.865 101.929 105.01 102.064 105.471C102.242 106.073 102.401 106.508 102.762 107.684C103.269 109.331 103.182 111.153 102.229 112.65C101.237 114.211 99.4924 115.084 97.5889 114.913C95.7805 114.751 94.1968 113.704 92.9629 112.27C91.7147 110.819 90.6579 108.797 89.8438 106.198V106.197C89.6002 105.419 88.9109 104.542 87.5674 103.387C86.9164 102.827 86.2327 102.299 85.4658 101.693C84.7352 101.116 83.9289 100.467 83.208 99.7734V99.7725C82.3671 98.9627 81.5577 98.1883 80.7705 97.4434C76.8908 98.7151 71.4694 99.6982 64.8994 99.6982C64.1949 99.6982 63.3833 99.6288 62.6123 99.3418C61.7873 99.0347 60.8233 98.3956 60.3262 97.209C59.8636 96.1046 60.0382 95.0648 60.2354 94.4189C60.4374 93.7573 60.7659 93.164 61.0703 92.6875C61.6813 91.731 62.5508 90.7071 63.4131 89.7461C63.9135 89.1884 64.4789 88.5765 65.0479 87.9639C64.194 87.8755 63.4552 87.833 63.0576 87.833C59.0626 87.833 57.2197 88.7617 53.1885 90.4727C51.2519 92.0633 50.3829 93.3712 49.9805 94.3838C49.5676 95.4227 49.5322 96.4316 49.7021 97.6221C49.7907 98.2421 49.9278 98.8708 50.0928 99.6006C50.249 100.292 50.44 101.113 50.5684 101.938C50.8326 103.634 50.8992 105.701 49.8672 107.845L49.3164 108.988L48.1123 109.39C47.5521 109.576 47.0585 109.568 46.8213 109.556C46.5382 109.541 46.2811 109.498 46.0771 109.455C45.6672 109.369 45.2458 109.234 44.8506 109.088C44.0478 108.79 43.1067 108.348 42.1377 107.799C40.7791 107.029 39.2067 105.955 37.8154 104.617C37.2797 104.8 36.6563 104.994 35.957 105.175C33.5886 105.786 30.2635 106.29 26.5762 105.765L22.7002 105.212L24.2422 101.613C25.9655 97.5909 29.9711 92.9175 34.2871 89.0713L34.2881 89.0703C36.1604 87.4037 36.1421 86.6281 38.4023 82.9795C43.8488 72.0631 53.4932 64.9596 66.7627 62.583C66.8003 62.3836 66.8373 62.1579 66.8701 61.9033C66.9335 61.4115 66.9772 60.8962 67.0254 60.3203C67.0713 59.771 67.1222 59.1438 67.1992 58.5479C67.328 57.5519 67.6049 55.7643 68.8037 54.4688C69.5069 53.7089 70.4394 53.2039 71.5254 53.0498ZM92.4043 91.9189C91.6089 91.9189 90.9719 92.5633 90.9717 93.3486C90.9717 94.1369 91.6127 94.7803 92.4043 94.7803C93.1395 94.7802 93.7524 94.2204 93.8262 93.4961L93.834 93.3486L93.8262 93.2021C93.7576 92.5279 93.2218 91.9938 92.5498 91.9258L92.4043 91.9189Z" fill="#CCD0DA" stroke="#6C6F85" stroke-width="6"/>
<circle cx="92.5" cy="93.5" r="2.5" fill="#7287FD"/>
</svg>
