<svg width="128" height="128" viewBox="0 0 128 128" fill="none" xmlns="http://www.w3.org/2000/svg">
<rect x="4" y="4" width="120" height="120" rx="20" fill="#515D69" stroke="#354048" stroke-width="8"/>
<path d="M67.1835 113.538C65.6214 115.101 63.0887 115.101 61.5266 113.538L38.8992 90.911C38.1635 90.1752 37.744 89.1817 37.7288 88.1413L36.9001 31.5134C36.8777 29.9663 37.7496 28.5444 39.1388 27.8632L62.5942 16.3637C63.7049 15.8192 65.0052 15.8193 66.1159 16.3637L89.572 27.8639L89.8261 28.0006C91.0665 28.7238 91.8319 30.0636 91.8107 31.5141L90.9828 88.1413C90.9675 89.1818 90.5467 90.1752 89.8109 90.911L67.1835 113.538Z" fill="#7DC5E9" stroke="#2C769A" stroke-width="8" stroke-linejoin="round"/>
<path d="M66.1213 81.4507C64.9498 80.2791 63.0502 80.2791 61.8787 81.4507L59.2353 84.094C58.6834 84.6459 58.3677 85.3915 58.3563 86.1718L58.2603 92.7878C58.2433 93.9483 58.8969 95.0149 59.939 95.5258L62.6797 96.8689C63.5126 97.2772 64.4874 97.2772 65.3203 96.8689L68.061 95.5258L68.2523 95.4229C69.1825 94.8805 69.7556 93.8756 69.7397 92.7878L69.6437 86.1718C69.6323 85.3915 69.3166 84.6459 68.7647 84.094L66.1213 81.4507Z" fill="#515D69" stroke="#2C769A" stroke-width="6" stroke-linejoin="round"/>
<path d="M71.8824 36.9146C72.5983 37.4915 73.0132 38.3682 72.9997 39.2942L72.6938 60.2443L72.682 60.4632C72.6373 60.9724 72.4633 61.4632 72.1745 61.8878L66.4811 70.2591C65.9343 71.063 65.0313 71.5525 64.0594 71.5718C63.0876 71.5911 62.1668 71.1378 61.5886 70.3565L55.3945 61.9845C55.0215 61.4802 54.8154 60.8715 54.8062 60.2443L54.5003 39.2942C54.4853 38.2667 54.9974 37.3027 55.8572 36.7399L62.3572 32.4856L62.554 32.3661C63.5551 31.8151 64.7922 31.8791 65.7353 32.5477L71.7353 36.8035L71.8824 36.9146Z" fill="#515D69" stroke="#2C769A" stroke-width="6" stroke-linejoin="round"/>
<path d="M60.1214 77.6934C61.2929 76.5218 61.2929 74.6223 60.1214 73.4508L57.4781 70.8074C56.9262 70.2555 56.1806 69.9398 55.4002 69.9283L48.7842 69.8324C47.6238 69.8154 46.5572 70.469 46.0463 71.5111L44.7032 74.2518C44.2949 75.0847 44.2949 76.0595 44.7032 76.8924L46.0463 79.6331L46.1492 79.8244C46.6916 80.7545 47.6965 81.3277 48.7842 81.3118L55.4002 81.2158C56.1806 81.2044 56.9262 80.8886 57.4781 80.3368L60.1214 77.6934Z" fill="#515D69" stroke="#2C769A" stroke-width="6" stroke-linejoin="round"/>
<path d="M67.8786 77.6934C66.7071 76.5218 66.7071 74.6223 67.8786 73.4508L70.522 70.8074C71.0738 70.2555 71.8194 69.9398 72.5998 69.9283L79.2158 69.8324C80.3762 69.8154 81.4428 70.469 81.9537 71.5111L83.2968 74.2518C83.7051 75.0847 83.7051 76.0595 83.2968 76.8924L81.9537 79.6331L81.8509 79.8244C81.3084 80.7545 80.3035 81.3277 79.2158 81.3118L72.5998 81.2158C71.8194 81.2044 71.0738 80.8886 70.522 80.3368L67.8786 77.6934Z" fill="#515D69" stroke="#2C769A" stroke-width="6" stroke-linejoin="round"/>
</svg>
