<svg width="128" height="128" viewBox="0 0 128 128" fill="none" xmlns="http://www.w3.org/2000/svg">
<rect x="4" y="4" width="120" height="120" rx="20" fill="#C5D5E4" stroke="#7E95A8" stroke-width="8"/>
<circle cx="64" cy="64" r="51" fill="#448DD2" stroke="#86BEF4" stroke-width="8"/>
<path d="M60.7382 50.1846C62.8908 42.612 68.364 27.2175 74.4192 28.8399C76.4555 46.905 81.4672 50.1446 83.2117 53.4028C87.9525 55.1318 93.45 56.7068 102.757 56.2345C112.365 72.2607 78.7354 91.0152 66.8685 94.1949C51.7293 107.114 44.7619 87.7229 26.3419 78.4811C24.489 71.5662 39.6154 59.3501 43.2026 52.8885C45.6799 44.9021 50.7164 32.2322 56.2378 33.7116C57.1399 41.7143 58.6299 46.8056 60.1582 50.2795C60.3535 50.2471 60.5466 50.2143 60.7382 50.1846Z" fill="#366DA2"/>
<path d="M104.307 62.0193C106.3 69.4571 89.8569 84.4921 82.3918 86.4923C74.9268 88.4925 67.5863 85.304 65.9965 79.3706C64.4066 73.4371 69.1694 67.0055 76.6344 65.0053C84.0994 63.005 102.717 56.0858 104.307 62.0193Z" fill="#448DD2"/>
<path d="M67.2694 27.5313C69.1155 25.7708 71.9829 24.0461 75.4543 24.9762C77.0433 25.402 78.2095 26.7577 78.3938 28.3924C79.3741 37.0886 81.0392 41.9382 82.5072 44.8949C83.2415 46.3737 83.9653 47.4585 84.6414 48.4035C84.976 48.8713 85.4216 49.4633 85.8547 50.0944C89.7938 51.4469 94.4035 52.5575 101.754 52.2754L102.554 52.2399L102.83 52.2348C104.202 52.2597 105.475 52.989 106.187 54.1771C107.879 56.9986 108.541 59.8797 108.45 62.6932C108.643 65.5444 107.531 68.3649 106.272 70.638C106.239 70.6965 106.204 70.7541 106.171 70.8126C103.937 75.0848 100.29 79.0078 96.2702 82.4039C94.7137 83.7707 93.1153 85.0347 91.5524 86.1379C90.6998 86.7397 89.8267 87.3147 88.9517 87.8417C81.6804 92.6423 73.8892 96.2757 68.7754 97.8086C64.7328 101.074 60.7183 102.682 56.5505 102.485C52.2872 102.282 48.6331 100.212 45.4574 97.8652C42.3753 95.587 38.961 92.4104 35.7474 89.7179C32.3658 86.8847 28.7503 84.1651 24.548 82.0567C23.527 81.5445 22.7739 80.6199 22.4782 79.5166C21.6001 76.2393 22.8441 72.9981 24.1813 70.5536C25.5951 67.969 27.6388 65.3423 29.6781 62.9317C31.6893 60.5545 34.005 58.0381 35.7851 56.0058C37.5458 53.9954 38.8159 52.4189 39.5244 51.254C40.7952 47.2218 42.7185 41.9735 45.1002 37.7764C46.3215 35.6242 47.8163 33.4687 49.6155 31.925C51.4384 30.3609 54.1206 29.003 57.2734 29.8478C58.8623 30.2736 60.0286 31.6294 60.2128 33.2639C60.4007 34.9302 60.6155 36.4546 60.8476 37.8517C61.3863 36.607 61.9609 35.3804 62.5685 34.215C63.8419 31.7726 65.4022 29.3119 67.2694 27.5313Z" stroke="#223B68" stroke-width="8" stroke-linejoin="round"/>
</svg>
