<svg width="128" height="128" viewBox="0 0 128 128" fill="none" xmlns="http://www.w3.org/2000/svg">
<rect x="4" y="4" width="120" height="120" rx="20" fill="#515D69" stroke="#354048" stroke-width="8"/>
<mask id="path-2-outside-1_1_265" maskUnits="userSpaceOnUse" x="39" y="40" width="50" height="55" fill="black">
<rect fill="white" x="39" y="40" width="50" height="55"/>
<path d="M80.9837 70.2557L47.0291 86.7216V78.8977L72.0859 67.4943L71.8303 67.929V66.8295L72.0859 67.2898L47.0291 55.8608V48.0625L80.9837 64.5284V70.2557Z"/>
</mask>
<path d="M80.9837 70.2557L47.0291 86.7216V78.8977L72.0859 67.4943L71.8303 67.929V66.8295L72.0859 67.2898L47.0291 55.8608V48.0625L80.9837 64.5284V70.2557Z" fill="#B8C9D9"/>
<path d="M80.9837 70.2557L84.4744 77.4539C87.2323 76.1165 88.9837 73.3208 88.9837 70.2557H80.9837ZM47.0291 86.7216H39.0291C39.0291 89.477 40.4471 92.0384 42.7821 93.5012C45.1171 94.964 48.0406 95.1221 50.5198 93.9198L47.0291 86.7216ZM47.0291 78.8977L43.7153 71.6163C40.8612 72.9152 39.0291 75.7619 39.0291 78.8977H47.0291ZM72.0859 67.4943L78.9814 71.5505C80.7509 68.5424 80.3662 64.7344 78.0309 62.141C75.6956 59.5476 71.9486 58.7673 68.7722 60.2129L72.0859 67.4943ZM71.8303 67.929H63.8303C63.8303 71.5377 66.2464 74.6997 69.7283 75.6479C73.2103 76.5961 76.896 75.0956 78.7257 71.9851L71.8303 67.929ZM71.8303 66.8295L78.8235 62.9444C77.0532 59.7578 73.3524 58.1709 69.8235 59.0853C66.2947 59.9997 63.8303 63.1841 63.8303 66.8295H71.8303ZM72.0859 67.2898L68.766 74.5684C71.9093 76.0021 75.6179 75.256 77.9622 72.7183C80.3066 70.1806 80.757 66.4247 79.0792 63.4046L72.0859 67.2898ZM47.0291 55.8608H39.0291C39.0291 58.9942 40.8584 61.8391 43.7092 63.1394L47.0291 55.8608ZM47.0291 48.0625L50.5198 40.8642C48.0406 39.662 45.1171 39.8201 42.7821 41.2829C40.4471 42.7457 39.0291 45.3071 39.0291 48.0625H47.0291ZM80.9837 64.5284H88.9837C88.9837 61.4633 87.2323 58.6676 84.4744 57.3302L80.9837 64.5284ZM80.9837 70.2557L77.4929 63.0574L43.5384 79.5233L47.0291 86.7216L50.5198 93.9198L84.4744 77.4539L80.9837 70.2557ZM47.0291 86.7216H55.0291V78.8977H47.0291H39.0291V86.7216H47.0291ZM47.0291 78.8977L50.3429 86.1791L75.3997 74.7757L72.0859 67.4943L68.7722 60.2129L43.7153 71.6163L47.0291 78.8977ZM72.0859 67.4943L65.1905 63.4382L64.9348 63.8728L71.8303 67.929L78.7257 71.9851L78.9814 71.5505L72.0859 67.4943ZM71.8303 67.929H79.8303V66.8295H71.8303H63.8303V67.929H71.8303ZM71.8303 66.8295L64.837 70.7147L65.0927 71.1749L72.0859 67.2898L79.0792 63.4046L78.8235 62.9444L71.8303 66.8295ZM72.0859 67.2898L75.4059 60.0112L50.3491 48.5822L47.0291 55.8608L43.7092 63.1394L68.766 74.5684L72.0859 67.2898ZM47.0291 55.8608H55.0291V48.0625H47.0291H39.0291V55.8608H47.0291ZM47.0291 48.0625L43.5384 55.2608L77.4929 71.7267L80.9837 64.5284L84.4744 57.3302L50.5198 40.8642L47.0291 48.0625ZM80.9837 64.5284H72.9837V70.2557H80.9837H88.9837V64.5284H80.9837Z" fill="#36414C" mask="url(#path-2-outside-1_1_265)"/>
</svg>
