<?xml version="1.0" encoding="UTF-8" standalone="no"?>
<svg
   width="128"
   height="128"
   viewBox="0 0 128 128"
   fill="none"
   version="1.1"
   id="svg87"
   xmlns="http://www.w3.org/2000/svg"
   xmlns:svg="http://www.w3.org/2000/svg">
  <mask
     id="path-2-outside-1_0_1"
     maskUnits="userSpaceOnUse"
     x="28"
     y="33"
     width="91"
     height="63"
     fill="#000000">
    <rect
       fill="#ffffff"
       x="28"
       y="33"
       width="91"
       height="63"
       id="rect2" />
    <path
       d="M 70.4251,63.2557 36.4705,79.7216 V 71.8977 L 61.5273,60.4943 61.2717,60.929 v -1.0995 l 0.2556,0.4603 -25.0568,-11.429 V 41.0625 L 70.4251,57.5284 Z M 110.605,81 v 6.4943 H 77.3413 V 81 Z"
       id="path2" />
  </mask>
  <mask
     id="path-5-outside-2_0_1"
     maskUnits="userSpaceOnUse"
     x="387"
     y="383"
     width="50"
     height="55"
     fill="#000000">
    <rect
       fill="#ffffff"
       x="387"
       y="383"
       width="50"
       height="55"
       id="rect5" />
    <path
       d="m 428.984,413.256 -33.955,16.466 v -7.824 l 25.057,-11.404 -0.256,0.435 v -1.099 l 0.256,0.46 -25.057,-11.429 v -7.799 l 33.955,16.466 z"
       id="path5" />
  </mask>
  <g
     id="g102"
     transform="translate(-348,-343)">
    <rect
       x="352"
       y="347"
       width="120"
       height="120"
       rx="20"
       fill="#515d69"
       stroke="#354048"
       stroke-width="8"
       id="rect4" />
    <path
       d="m 428.984,413.256 -33.955,16.466 v -7.824 l 25.057,-11.404 -0.256,0.435 v -1.099 l 0.256,0.46 -25.057,-11.429 v -7.799 l 33.955,16.466 z"
       fill="#b8c9d9"
       id="path6" />
    <path
       d="m 428.984,413.256 3.49,7.198 c 2.758,-1.338 4.51,-4.133 4.51,-7.198 z m -33.955,16.466 h -8 c 0,2.755 1.418,5.316 3.753,6.779 2.335,1.463 5.259,1.621 7.738,0.419 z m 0,-7.824 -3.314,-7.282 c -2.854,1.299 -4.686,4.146 -4.686,7.282 z m 25.057,-11.404 6.895,4.056 c 1.77,-3.008 1.385,-6.816 -0.95,-9.409 -2.335,-2.593 -6.082,-3.374 -9.259,-1.928 z m -0.256,0.435 h -8 c 0,3.609 2.416,6.771 5.898,7.719 3.482,0.948 7.168,-0.552 8.998,-3.663 z m 0,-1.099 6.994,-3.886 c -1.771,-3.186 -5.472,-4.773 -9,-3.859 -3.529,0.915 -5.994,4.099 -5.994,7.745 z m 0.256,0.46 -3.32,7.278 c 3.143,1.434 6.852,0.688 9.196,-1.85 2.345,-2.537 2.795,-6.293 1.117,-9.313 z m -25.057,-11.429 h -8 c 0,3.133 1.829,5.978 4.68,7.278 z m 0,-7.799 3.491,-7.198 c -2.479,-1.202 -5.403,-1.044 -7.738,0.419 -2.335,1.463 -3.753,4.024 -3.753,6.779 z m 33.955,16.466 h 8 c 0,-3.065 -1.752,-5.86 -4.51,-7.198 z m 0,5.728 -3.491,-7.199 -33.955,16.466 3.491,7.199 3.491,7.198 33.954,-16.466 z m -33.955,16.466 h 8 v -7.824 h -8 -8 v 7.824 z m 0,-7.824 3.314,7.281 25.057,-11.403 -3.314,-7.282 -3.314,-7.281 -25.057,11.403 z m 25.057,-11.404 -6.896,-4.056 -0.255,0.435 6.895,4.056 6.896,4.056 0.255,-0.435 z m -0.256,0.435 h 8 v -1.099 h -8 -8 v 1.099 z m 0,-1.099 -6.993,3.885 0.256,0.46 6.993,-3.885 6.993,-3.885 -0.255,-0.461 z m 0.256,0.46 3.32,-7.279 -25.057,-11.429 -3.32,7.279 -3.32,7.278 25.057,11.429 z m -25.057,-11.429 h 8 v -7.799 h -8 -8 v 7.799 z m 0,-7.799 -3.491,7.199 33.955,16.466 3.491,-7.199 3.49,-7.198 -33.954,-16.466 z m 33.955,16.466 h -8 v 5.728 h 8 8 v -5.728 z"
       fill="#36414c"
       mask="url(#path-5-outside-2_0_1)"
       id="path7" />
  </g>
  <mask
     id="mask0_0_1"
     maskUnits="userSpaceOnUse"
     x="520"
     y="1"
     width="126"
     height="126">
    <rect
       x="524"
       y="5"
       width="118"
       height="118"
       rx="24"
       fill="#bcbdbf"
       stroke="#ffffff"
       stroke-width="8"
       id="rect41" />
  </mask>
  <mask
     id="path-55-inside-3_0_1"
     fill="#ffffff">
    <path
       d="M 519,24 C 519,10.7452 529.745,0 543,0 h 80 c 13.255,0 24,10.7452 24,24 v 80 c 0,13.255 -10.745,24 -24,24 h -80 c -13.255,0 -24,-10.745 -24,-24 z"
       id="path45" />
  </mask>
  <mask
     id="mask1_0_1"
     maskUnits="userSpaceOnUse"
     x="520"
     y="173"
     width="126"
     height="126">
    <rect
       x="524"
       y="177"
       width="118"
       height="118"
       rx="24"
       fill="#bcbdbf"
       stroke="#ffffff"
       stroke-width="8"
       id="rect48" />
  </mask>
  <mask
     id="path-65-inside-4_0_1"
     fill="#ffffff">
    <path
       d="m 519,196 c 0,-13.255 10.745,-24 24,-24 h 80 c 13.255,0 24,10.745 24,24 v 80 c 0,13.255 -10.745,24 -24,24 h -80 c -13.255,0 -24,-10.745 -24,-24 z"
       id="path53" />
  </mask>
  <mask
     id="path-101-outside-5_0_1"
     maskUnits="userSpaceOnUse"
     x="1040"
     y="24"
     width="114"
     height="90"
     fill="#000000">
    <rect
       fill="#ffffff"
       x="1040"
       y="24"
       width="114"
       height="90"
       id="rect74" />
    <path
       d="m 1102.36,53.7227 v 0.2819 l -14.06,20.297 c -2.27,-0.1035 -4.56,0.2944 -6.73,1.1812 -0.94,0.3813 -1.84,0.8598 -2.69,1.4275 L 1048,64.2646 v 20.3928 l 24.09,8.9419 c 1.08,4.8677 4.46,9.1357 9.42,11.1877 3.9,1.611 8.29,1.617 12.19,0.018 3.91,-1.6 7.02,-4.675 8.65,-8.5506 0.86,-2.0641 1.28,-4.2873 1.22,-6.5236 l 20.11,-14.2837 0.49,0.0089 c 12.04,0 21.83,-9.7532 21.83,-21.7333 0,-11.9802 -9.77,-21.6977 -21.83,-21.7227 -12.04,0 -21.83,9.7425 -21.83,21.7227 z m -3.38,41.1292 c -2.61,6.2451 -9.81,9.1841 -16.08,6.5911 -2.78,-1.16 -5.03,-3.2952 -6.33,-5.9987 l 7.11,2.9263 c 1.1,0.4541 2.28,0.6887 3.47,0.6906 1.18,0.0019 2.36,-0.2291 3.46,-0.6796 1.1,-0.4506 2.1,-1.1119 2.94,-1.9463 0.84,-0.8343 1.51,-1.8253 1.97,-2.9163 0.92,-2.2045 0.93,-4.6832 0.01,-6.8917 -0.91,-2.2085 -2.67,-3.9661 -4.89,-4.8868 l -7.36,-3.0245 c 2.83,-1.0706 6.05,-1.1063 9.07,0.1374 3.05,1.2544 5.39,3.6169 6.64,6.6378 1.25,3.0209 1.24,6.3523 -0.02,9.3607 m 25.22,-26.6493 c -3.86,-0.0103 -7.56,-1.5397 -10.28,-4.2531 -2.73,-2.7134 -4.26,-6.3895 -4.26,-10.2233 0,-3.8331 1.53,-7.5083 4.26,-10.221 2.73,-2.7126 6.42,-4.2414 10.28,-4.2518 3.86,0.0094 7.56,1.5379 10.28,4.2506 2.73,2.7127 4.26,6.3885 4.27,10.2222 -0.01,3.8344 -1.54,7.5111 -4.27,10.2246 -2.72,2.7135 -6.42,4.2424 -10.28,4.2518 z m -10.9,-14.4996 c 0,-2.8804 1.15,-5.644 3.2,-7.6833 2.04,-2.0394 4.82,-3.1875 7.72,-3.1923 6.03,0 10.93,4.8713 10.93,10.8756 0,2.8811 -1.15,5.6449 -3.2,7.6836 -2.05,2.0388 -4.83,3.1856 -7.73,3.1885 -2.9,-0.0043 -5.68,-1.1518 -7.72,-3.1904 -2.05,-2.0386 -3.2,-4.8015 -3.2,-7.6817 z"
       id="path74" />
  </mask>
  <defs
     id="defs87" />
</svg>
