<svg width="128" height="128" viewBox="0 0 128 128" fill="none" xmlns="http://www.w3.org/2000/svg">
<rect x="4" y="4" width="120" height="120" rx="20" fill="#7287FD" stroke="#4C4F69" stroke-width="8"/>
<rect x="4" y="38" width="120" height="86" rx="20" fill="#7287FD" stroke="#46557D" stroke-width="8"/>
<path d="M23 38C23 38 23 4 64 4C105 4 105 38 105 38" stroke="#B1CEEF" stroke-width="8" stroke-linecap="round" stroke-linejoin="round"/>
<path d="M55.4095 54.3665C59.6018 54.3665 63.4945 57.5213 63.4945 61.9934C63.4943 66.4654 59.6018 69.6194 55.4095 69.6194C51.2174 69.6192 47.3257 66.4653 47.3255 61.9934C47.3255 57.5214 51.2173 54.3666 55.4095 54.3665Z" fill="#CCD0DA" stroke="#6C6F85" stroke-width="6"/>
<path d="M44.2245 68.7607C49.8436 68.7607 54.3427 73.3576 54.3427 78.9579C54.3426 84.5582 49.8436 89.1551 44.2245 89.1552C38.6054 89.1552 34.1064 84.5582 34.1064 78.9579C34.1064 73.3575 38.6053 68.7607 44.2245 68.7607Z" fill="#CCD0DA" stroke="#6C6F85" stroke-width="6"/>
<path d="M58.4603 85.2112C64.6411 85.2112 69.5951 90.2686 69.5951 96.4368C69.5949 102.605 64.641 107.661 58.4603 107.661C52.2797 107.661 47.3257 102.605 47.3255 96.4368C47.3255 90.2686 52.2796 85.2112 58.4603 85.2112Z" fill="#CCD0DA" stroke="#6C6F85" stroke-width="6"/>
<path d="M93.1366 71.3364C94.3161 72.4997 94.3163 74.3858 93.1366 75.5489L74.8656 93.5631C73.6858 94.7263 71.7728 94.7261 70.593 93.5631L61.9651 85.0565C60.7853 83.8933 60.7853 82.0073 61.9651 80.844L68.9643 73.9432L62.3803 67.4517C61.2004 66.2884 61.2004 64.4024 62.3803 63.2392L71.5158 54.2321C72.6956 53.0688 74.6085 53.0688 75.7884 54.2321L93.1366 71.3364Z" fill="#CCD0DA" stroke="#6C6F85" stroke-width="6" stroke-linejoin="round"/>
</svg>
