<svg width="129" height="129" viewBox="0 0 129 129" fill="none" xmlns="http://www.w3.org/2000/svg">
<rect x="5" y="5" width="120" height="120" rx="20" fill="#132E62" stroke="#13213B" stroke-width="8"/>
<mask id="path-2-outside-1_1_594" maskUnits="userSpaceOnUse" x="8" y="20" width="114" height="90" fill="black">
<rect fill="white" x="8" y="20" width="114" height="90"/>
<path d="M70.359 49.7227L70.3644 50.0046L56.3023 70.3016C54.0251 70.1981 51.7407 70.596 49.5712 71.4828C48.6268 71.8641 47.7251 72.3426 46.8809 72.9103L16 60.2646L16 80.6574L40.0941 89.5993C41.1717 94.467 44.548 98.7352 49.5084 100.787C53.4108 102.398 57.7973 102.404 61.7044 100.805C65.6115 99.2047 68.7197 96.1295 70.3465 92.2544C71.2143 90.1903 71.633 87.9671 71.5749 85.7308L91.6767 71.4471L92.1705 71.456C104.212 71.456 114 61.7028 114 49.7227C114 37.7425 104.23 28.025 92.1705 28C80.1342 28 70.3411 37.7425 70.3411 49.7227H70.359ZM66.9827 90.8519C64.3714 97.0971 57.1662 100.036 50.9038 97.4433C48.1248 96.2829 45.8723 94.1478 44.575 91.4443L51.6814 94.3706C52.7792 94.8247 53.9563 95.0593 55.1454 95.0612C56.3346 95.0631 57.5124 94.8321 58.6117 94.3816C59.7109 93.931 60.71 93.2697 61.552 92.4353C62.3939 91.601 63.0621 90.61 63.5184 89.519C64.4423 87.3145 64.4478 84.8358 63.5336 82.6273C62.6193 80.4188 60.8601 78.6612 58.6424 77.7405L51.2791 74.716C54.1131 73.6454 57.335 73.6097 60.3486 74.8534C63.4016 76.1078 65.7363 78.4703 66.9863 81.4912C68.2363 84.5121 68.2291 87.8435 66.9683 90.8519M92.1903 64.2026C88.3317 64.1923 84.6345 62.6629 81.9086 59.9495C79.1827 57.2361 77.6502 53.56 77.6469 49.7262C77.6512 45.8931 79.184 42.2179 81.9099 39.5052C84.6357 36.7926 88.3323 35.2638 92.1903 35.2534C96.0489 35.2628 99.7465 36.7913 102.473 39.504C105.2 42.2167 106.733 45.8925 106.737 49.7262C106.734 53.5606 105.201 57.2373 102.474 59.9508C99.7476 62.6643 96.0495 64.1932 92.1903 64.2026ZM81.2926 49.703C81.2902 46.8226 82.439 44.059 84.4865 42.0197C86.534 39.9803 89.3127 38.8322 92.2118 38.8274C98.2372 38.8274 103.138 43.6987 103.138 49.703C103.14 52.5841 101.989 55.3479 99.9405 57.3866C97.8916 59.4254 95.1116 60.5722 92.2118 60.5751C89.313 60.5708 86.5344 59.4233 84.4866 57.3847C82.4389 55.3461 81.2912 52.5832 81.2926 49.703Z"/>
</mask>
<path d="M70.359 49.7227L70.3644 50.0046L56.3023 70.3016C54.0251 70.1981 51.7407 70.596 49.5712 71.4828C48.6268 71.8641 47.7251 72.3426 46.8809 72.9103L16 60.2646L16 80.6574L40.0941 89.5993C41.1717 94.467 44.548 98.7352 49.5084 100.787C53.4108 102.398 57.7973 102.404 61.7044 100.805C65.6115 99.2047 68.7197 96.1295 70.3465 92.2544C71.2143 90.1903 71.633 87.9671 71.5749 85.7308L91.6767 71.4471L92.1705 71.456C104.212 71.456 114 61.7028 114 49.7227C114 37.7425 104.23 28.025 92.1705 28C80.1342 28 70.3411 37.7425 70.3411 49.7227H70.359ZM66.9827 90.8519C64.3714 97.0971 57.1662 100.036 50.9038 97.4433C48.1248 96.2829 45.8723 94.1478 44.575 91.4443L51.6814 94.3706C52.7792 94.8247 53.9563 95.0593 55.1454 95.0612C56.3346 95.0631 57.5124 94.8321 58.6117 94.3816C59.7109 93.931 60.71 93.2697 61.552 92.4353C62.3939 91.601 63.0621 90.61 63.5184 89.519C64.4423 87.3145 64.4478 84.8358 63.5336 82.6273C62.6193 80.4188 60.8601 78.6612 58.6424 77.7405L51.2791 74.716C54.1131 73.6454 57.335 73.6097 60.3486 74.8534C63.4016 76.1078 65.7363 78.4703 66.9863 81.4912C68.2363 84.5121 68.2291 87.8435 66.9683 90.8519M92.1903 64.2026C88.3317 64.1923 84.6345 62.6629 81.9086 59.9495C79.1827 57.2361 77.6502 53.56 77.6469 49.7262C77.6512 45.8931 79.184 42.2179 81.9099 39.5052C84.6357 36.7926 88.3323 35.2638 92.1903 35.2534C96.0489 35.2628 99.7465 36.7913 102.473 39.504C105.2 42.2167 106.733 45.8925 106.737 49.7262C106.734 53.5606 105.201 57.2373 102.474 59.9508C99.7476 62.6643 96.0495 64.1932 92.1903 64.2026ZM81.2926 49.703C81.2902 46.8226 82.439 44.059 84.4865 42.0197C86.534 39.9803 89.3127 38.8322 92.2118 38.8274C98.2372 38.8274 103.138 43.6987 103.138 49.703C103.14 52.5841 101.989 55.3479 99.9405 57.3866C97.8916 59.4254 95.1116 60.5722 92.2118 60.5751C89.313 60.5708 86.5344 59.4233 84.4866 57.3847C82.4389 55.3461 81.2912 52.5832 81.2926 49.703Z" fill="white"/>
<path d="M70.359 49.7227L78.3576 49.5697C78.2743 45.2119 74.7177 41.7227 70.359 41.7227V49.7227ZM70.3644 50.0046L76.9404 54.5605C77.8974 53.1793 78.3951 51.5317 78.363 49.8517L70.3644 50.0046ZM56.3023 70.3016L55.9391 78.2933C58.6893 78.4183 61.3105 77.1204 62.8783 74.8575L56.3023 70.3016ZM49.5712 71.4828L52.5665 78.9009C52.5771 78.8966 52.5877 78.8923 52.5983 78.888L49.5712 71.4828ZM46.8809 72.9103L43.8493 80.3136C46.3191 81.325 49.1306 81.0381 51.3452 79.5488L46.8809 72.9103ZM16 60.2646L19.0316 52.8613C16.5644 51.8509 13.7559 52.1361 11.542 53.6218C9.32821 55.1075 8 57.5984 8 60.2646H16ZM16 80.6574L8 80.6574C8 84.0021 10.0808 86.9938 13.2165 88.1575L16 80.6574ZM40.0941 89.5993L47.905 87.8702C47.3178 85.2177 45.4246 83.0444 42.8776 82.0991L40.0941 89.5993ZM49.5084 100.787L46.4503 108.18L46.4556 108.182L49.5084 100.787ZM70.3465 92.2544L62.9718 89.1538L62.9701 89.1579L70.3465 92.2544ZM71.5749 85.7308L66.941 79.2095C64.7694 80.7526 63.5084 83.2754 63.5776 85.9385L71.5749 85.7308ZM91.6767 71.4471L91.8212 63.4484C90.1114 63.4175 88.4368 63.9353 87.0428 64.9258L91.6767 71.4471ZM92.1705 71.456L92.026 79.4547C92.0742 79.4556 92.1224 79.456 92.1705 79.456V71.456ZM92.1705 28L92.1871 20C92.1816 20 92.1761 20 92.1705 20V28ZM70.3411 49.7227H62.3411C62.3411 54.1409 65.9228 57.7227 70.3411 57.7227V49.7227ZM74.3635 93.938C76.0679 89.8617 74.1451 85.1755 70.0688 83.4711C65.9925 81.7667 61.3063 83.6895 59.6019 87.7658L66.9827 90.8519L74.3635 93.938ZM50.9038 97.4433L47.8212 104.826C47.8287 104.829 47.8362 104.832 47.8436 104.835L50.9038 97.4433ZM44.575 91.4443L47.6211 84.0469C44.5581 82.7856 41.0346 83.5425 38.7598 85.9504C36.4849 88.3582 35.9293 91.919 37.3624 94.9054L44.575 91.4443ZM51.6814 94.3706L54.7388 86.9779L54.7275 86.9733L51.6814 94.3706ZM61.552 92.4353L67.1832 98.1177L61.552 92.4353ZM63.5184 89.519L56.1402 86.4266L56.1379 86.4322L63.5184 89.519ZM58.6424 77.7405L61.7097 70.3519C61.7005 70.3481 61.6912 70.3442 61.682 70.3404L58.6424 77.7405ZM51.2791 74.716L48.4519 67.2323C45.378 68.3935 43.3268 71.3163 43.28 74.6019C43.2331 77.8875 45.2001 80.8676 48.2396 82.1161L51.2791 74.716ZM60.3486 74.8534L57.2967 82.2484L57.3083 82.2532L60.3486 74.8534ZM59.59 87.7599C57.8824 91.8348 59.8014 96.5225 63.8763 98.2302C67.9512 99.9379 72.639 98.0189 74.3466 93.9439L66.9683 90.8519L59.59 87.7599ZM92.1903 64.2026L92.1688 72.2026C92.1825 72.2027 92.1962 72.2027 92.2099 72.2026L92.1903 64.2026ZM77.6469 49.7262L69.6469 49.7173C69.6469 49.7226 69.6469 49.7279 69.6469 49.7331L77.6469 49.7262ZM92.1903 35.2534L92.2099 27.2534C92.1962 27.2534 92.1825 27.2534 92.1688 27.2534L92.1903 35.2534ZM106.737 49.7262L114.737 49.7331C114.737 49.7279 114.737 49.7226 114.737 49.7173L106.737 49.7262ZM81.2926 49.703L89.2926 49.707L89.2926 49.6964L81.2926 49.703ZM92.2118 38.8274V30.8274L92.1988 30.8274L92.2118 38.8274ZM103.138 49.703H95.1382L95.1383 49.707L103.138 49.703ZM92.2118 60.5751L92.2001 68.5751C92.2066 68.5751 92.2132 68.5751 92.2197 68.5751L92.2118 60.5751ZM70.359 49.7227L62.3605 49.8756L62.3659 50.1575L70.3644 50.0046L78.363 49.8517L78.3576 49.5697L70.359 49.7227ZM70.3644 50.0046L63.7885 45.4486L49.7264 65.7456L56.3023 70.3016L62.8783 74.8575L76.9404 54.5605L70.3644 50.0046ZM56.3023 70.3016L56.6655 62.3098C53.2064 62.1526 49.7666 62.7603 46.5442 64.0776L49.5712 71.4828L52.5983 78.888C53.7147 78.4316 54.8438 78.2435 55.9391 78.2933L56.3023 70.3016ZM49.5712 71.4828L46.576 64.0647C45.1167 64.6539 43.7226 65.3935 42.4166 66.2717L46.8809 72.9103L51.3452 79.5488C51.7276 79.2916 52.1369 79.0744 52.5665 78.9009L49.5712 71.4828ZM46.8809 72.9103L49.9126 65.507L19.0316 52.8613L16 60.2646L12.9684 67.6679L43.8493 80.3136L46.8809 72.9103ZM16 60.2646H8L8 80.6574L16 80.6574H24L24 60.2646H16ZM16 80.6574L13.2165 88.1575L37.3106 97.0994L40.0941 89.5993L42.8776 82.0991L18.7835 73.1572L16 80.6574ZM40.0941 89.5993L32.2832 91.3284C33.9074 98.6652 38.9999 105.098 46.4503 108.18L49.5084 100.787L52.5665 93.3947C50.0961 92.3728 48.436 90.2688 47.905 87.8702L40.0941 89.5993ZM49.5084 100.787L46.4556 108.182C52.3059 110.597 58.8787 110.606 64.7359 108.208L61.7044 100.805L58.6729 93.4012C56.7158 94.2026 54.5157 94.1994 52.5611 93.3925L49.5084 100.787ZM61.7044 100.805L64.7359 108.208C70.5946 105.809 75.2714 101.191 77.7229 95.3509L70.3465 92.2544L62.9701 89.1579C62.168 91.0684 60.6284 92.6005 58.6729 93.4012L61.7044 100.805ZM70.3465 92.2544L77.7212 95.355C79.0284 92.2458 79.6598 88.895 79.5722 85.5231L71.5749 85.7308L63.5776 85.9385C63.6062 87.0392 63.4002 88.1347 62.9718 89.1538L70.3465 92.2544ZM71.5749 85.7308L76.2087 92.2521L96.3105 77.9684L91.6767 71.4471L87.0428 64.9258L66.941 79.2095L71.5749 85.7308ZM91.6767 71.4471L91.5322 79.4458L92.026 79.4547L92.1705 71.456L92.315 63.4573L91.8212 63.4484L91.6767 71.4471ZM92.1705 71.456V79.456C108.599 79.456 122 66.1523 122 49.7227H114H106C106 57.2533 99.8252 63.456 92.1705 63.456V71.456ZM114 49.7227H122C122 33.2772 108.605 20.034 92.1871 20L92.1705 28L92.154 36C99.8555 36.0159 106 42.2079 106 49.7227H114ZM92.1705 28V20C75.7537 20 62.3411 33.2867 62.3411 49.7227H70.3411H78.3411C78.3411 42.1984 84.5148 36 92.1705 36V28ZM70.3411 49.7227V57.7227H70.359V49.7227V41.7227H70.3411V49.7227ZM66.9827 90.8519L59.6019 87.7658C58.706 89.9085 56.1908 90.9736 53.9639 90.0517L50.9038 97.4433L47.8436 104.835C58.1416 109.098 70.0368 104.286 74.3635 93.938L66.9827 90.8519ZM50.9038 97.4433L53.9864 90.061C53.0098 89.6532 52.2317 88.9088 51.7875 87.9832L44.575 91.4443L37.3624 94.9054C39.5129 99.3867 43.2398 102.913 47.8212 104.826L50.9038 97.4433ZM44.575 91.4443L41.5288 98.8417L48.6353 101.768L51.6814 94.3706L54.7275 86.9733L47.6211 84.0469L44.575 91.4443ZM51.6814 94.3706L48.624 101.763C50.6883 102.617 52.8999 103.058 55.1328 103.061L55.1454 95.0612L55.1581 87.0612C55.0128 87.061 54.8701 87.0322 54.7388 86.9779L51.6814 94.3706ZM55.1454 95.0612L55.1328 103.061C57.3657 103.065 59.5787 102.631 61.6457 101.784L58.6117 94.3816L55.5776 86.9792C55.4461 87.0331 55.3034 87.0614 55.1581 87.0612L55.1454 95.0612ZM58.6117 94.3816L61.6457 101.784C63.7127 100.937 65.5949 99.6918 67.1832 98.1177L61.552 92.4353L55.9207 86.753C55.8252 86.8476 55.7091 86.9253 55.5776 86.9792L58.6117 94.3816ZM61.552 92.4353L67.1832 98.1177C68.7717 96.5435 70.0351 94.671 70.8989 92.6058L63.5184 89.519L56.1379 86.4322C56.089 86.549 56.0161 86.6585 55.9207 86.753L61.552 92.4353ZM63.5184 89.519L70.8965 92.6114C72.6449 88.44 72.6553 83.7465 70.9252 79.5673L63.5336 82.6273L56.1419 85.6872C56.2403 85.925 56.2398 86.189 56.1402 86.4266L63.5184 89.519ZM63.5336 82.6273L70.9252 79.5673C69.1959 75.3899 65.8754 72.0812 61.7097 70.3519L58.6424 77.7405L55.5751 85.1291C55.8448 85.2411 56.0427 85.4477 56.1419 85.6872L63.5336 82.6273ZM58.6424 77.7405L61.682 70.3404L54.3187 67.316L51.2791 74.716L48.2396 82.1161L55.6029 85.1406L58.6424 77.7405ZM51.2791 74.716L54.1063 82.1998C55.1143 81.819 56.2322 81.8091 57.2967 82.2484L60.3486 74.8534L63.4005 67.4584C58.4378 65.4103 53.112 65.4718 48.4519 67.2323L51.2791 74.716ZM60.3486 74.8534L57.3083 82.2532C58.3608 82.6856 59.1464 83.4679 59.5941 84.5499L66.9863 81.4912L74.3785 78.4325C72.3262 73.4727 68.4425 69.53 63.3889 67.4537L60.3486 74.8534ZM66.9863 81.4912L59.5941 84.5499C60.0301 85.6036 60.0254 86.7209 59.59 87.7599L66.9683 90.8519L74.3466 93.9439C76.4327 88.9661 76.4424 83.4206 74.3785 78.4325L66.9863 81.4912ZM92.1903 64.2026L92.2118 56.2027C90.4534 56.1979 88.7789 55.5005 87.5524 54.2796L81.9086 59.9495L76.2648 65.6194C80.4901 69.8252 86.21 72.1866 92.1688 72.2026L92.1903 64.2026ZM81.9086 59.9495L87.5524 54.2796C86.3275 53.0604 85.6484 51.4196 85.6469 49.7193L77.6469 49.7262L69.6469 49.7331C69.6521 55.7004 72.0378 61.4119 76.2648 65.6194L81.9086 59.9495ZM77.6469 49.7262L85.6469 49.7351C85.6488 48.0351 86.3281 46.3947 87.5529 45.1758L81.9099 39.5052L76.2668 33.8347C72.0399 38.041 69.6535 43.7511 69.6469 49.7173L77.6469 49.7262ZM81.9099 39.5052L87.5529 45.1758C88.7795 43.9553 90.4537 43.2581 92.2118 43.2534L92.1903 35.2534L92.1688 27.2534C86.2109 27.2694 80.4919 29.63 76.2668 33.8347L81.9099 39.5052ZM92.1903 35.2534L92.1707 43.2534C93.9291 43.2577 95.6038 43.9547 96.8307 45.1753L102.473 39.504L108.115 33.8327C103.889 29.6279 98.1687 27.268 92.2099 27.2534L92.1903 35.2534ZM102.473 39.504L96.8307 45.1753C98.0558 46.3942 98.7354 48.0349 98.7373 49.7351L106.737 49.7262L114.737 49.7173C114.731 43.7501 112.343 38.0392 108.115 33.8327L102.473 39.504ZM106.737 49.7262L98.7373 49.7193C98.7358 51.4198 98.0564 53.0609 96.8312 54.2802L102.474 59.9508L108.117 65.6214C112.346 61.4137 114.732 55.7014 114.737 49.7331L106.737 49.7262ZM102.474 59.9508L96.8312 54.2802C95.6043 55.5012 93.9294 56.1984 92.1707 56.2027L92.1903 64.2026L92.2099 72.2026C98.1696 72.188 103.891 69.8274 108.117 65.6214L102.474 59.9508ZM81.2926 49.703L89.2926 49.6964C89.292 48.9533 89.5879 48.2298 90.132 47.6878L84.4865 42.0197L78.841 36.3515C75.2902 39.8882 73.2885 44.6918 73.2926 49.7097L81.2926 49.703ZM84.4865 42.0197L90.132 47.6878C90.6779 47.1441 91.4297 46.8287 92.2249 46.8274L92.2118 38.8274L92.1988 30.8274C87.1957 30.8356 82.3901 32.8166 78.841 36.3515L84.4865 42.0197ZM92.2118 38.8274V46.8274C93.8574 46.8274 95.1383 48.1554 95.1383 49.703H103.138H111.138C111.138 39.242 102.617 30.8274 92.2118 30.8274V38.8274ZM103.138 49.703L95.1383 49.707C95.1386 50.4503 94.8424 51.1738 94.2978 51.7157L99.9405 57.3866L105.583 63.0576C109.137 59.5219 111.141 54.718 111.138 49.6991L103.138 49.703ZM99.9405 57.3866L94.2978 51.7157C93.7515 52.2593 92.9994 52.5743 92.204 52.5751L92.2118 60.5751L92.2197 68.5751C97.2239 68.5702 102.032 66.5915 105.583 63.0576L99.9405 57.3866ZM92.2118 60.5751L92.2236 52.5751C91.4285 52.5739 90.6767 52.2587 90.1308 51.7152L84.4866 57.3847L78.8425 63.0543C82.3921 66.5879 87.1975 68.5677 92.2001 68.5751L92.2118 60.5751ZM84.4866 57.3847L90.1308 51.7152C89.5889 51.1758 89.2923 50.4535 89.2926 49.707L81.2926 49.703L73.2926 49.6991C73.2901 54.713 75.2888 59.5165 78.8425 63.0543L84.4866 57.3847Z" fill="#516FAA" mask="url(#path-2-outside-1_1_594)"/>
</svg>
