<svg width="129" height="128" viewBox="0 0 129 128" fill="none" xmlns="http://www.w3.org/2000/svg">
<rect x="4.98303" y="4" width="120" height="120" rx="20" fill="#363950" stroke="#2C2F45" stroke-width="8"/>
<path d="M90.0699 19C93.773 19 97.2691 20.7098 99.5426 23.6328L99.7516 23.9014C100.639 25.0428 101.31 26.3374 101.731 27.7207C104.045 35.3229 98.3572 42.9998 90.4108 43H36.983C30.3556 43 24.983 37.6274 24.983 31C24.983 24.3726 30.3556 19 36.983 19H90.0699Z" fill="#CCD0DA" stroke="#6C6F85" stroke-width="8"/>
<path d="M93 86C99.6274 86 105 91.3726 105 98C105 104.627 99.6274 110 93 110H54.8145L54.6299 109.982L37.8867 108.426C33.4065 108.009 29.6065 104.959 28.2295 100.676C25.898 93.4223 31.3087 86 38.9277 86H93Z" fill="#CCD0DA" stroke="#6C6F85" stroke-width="8"/>
<path d="M18.943 66.928C18.943 57.0108 26.8566 48.9049 36.7709 48.6671L76.1233 47.7228C79.1039 47.6514 81.4833 45.2147 81.4833 42.2332C81.4835 34.7824 87.5239 28.7423 94.9748 28.7423L96.0309 28.7421C104.065 28.7421 110.579 35.2556 110.579 43.2902L110.58 49.8348C110.58 61.4838 101.136 70.9272 89.4868 70.9275L59.9552 70.9281C53.5271 70.9281 48.152 75.8139 47.5405 82.2129L46.242 95.8022C45.1669 107.049 31.6926 112.219 23.3706 104.577C20.5493 101.986 18.9429 98.3308 18.9428 94.5004L18.943 66.928Z" fill="#CCD0DA" stroke="#6C6F85" stroke-width="8"/>
</svg>
